{"glyphs":{"0":{"ha":316,"x_min":5,"x_max":341,"o":"m 184 695 q 256 768 218 768 q 304 751 290 768 q 341 632 337 710 q 338 506 345 555 q 213 106 313 275 q 199 86 212 104 q 179 59 186 68 q 73 -28 117 -28 q 56 -26 63 -28 q 5 60 5 -15 q 60 346 5 136 q 184 695 116 559 m 273 678 q 244 650 262 677 q 135 369 195 573 q 75 100 75 165 q 85 71 75 71 q 113 91 95 71 q 216 273 161 146 q 298 589 298 460 q 296 614 298 599 q 273 678 289 678 z "},"1":{"ha":398,"x_min":142,"x_max":452,"o":"m 151 -45 q 142 -19 142 -43 q 172 91 142 6 l 231 248 q 333 568 313 465 q 252 477 300 541 q 182 389 204 413 q 148 425 149 399 q 183 495 148 452 q 222 547 218 539 l 359 726 q 379 753 376 751 q 387 755 383 755 q 439 743 426 755 q 452 719 452 730 q 444 685 452 708 l 433 656 q 233 78 359 426 q 174 -33 205 -1 q 151 -45 161 -45 z "},"2":{"ha":465,"x_min":3,"x_max":519,"o":"m 368 87 l 319 104 q 210 54 269 104 q 164 12 201 45 q 47 -47 100 -47 q 6 -1 16 -47 q 3 25 3 12 q 33 117 3 76 q 206 328 40 130 q 409 591 372 526 q 445 689 445 657 l 445 693 q 284 606 362 666 q 241 592 267 591 q 216 608 216 592 q 244 649 216 624 q 425 745 353 745 q 494 718 469 745 q 519 663 519 690 q 421 482 519 600 q 398 455 412 471 q 380 433 385 438 l 83 74 q 313 128 250 128 q 376 96 376 127 q 368 87 375 87 z "},"3":{"ha":457,"x_min":33,"x_max":481,"o":"m 361 490 l 233 475 q 205 503 221 476 q 189 555 190 530 q 284 619 182 567 q 387 684 387 671 q 365 695 386 695 q 269 667 343 696 q 190 639 195 639 q 176 640 184 639 q 114 659 114 644 q 155 688 115 668 q 362 753 288 753 q 481 691 481 753 q 465 657 481 675 q 381 608 449 640 q 293 555 313 576 q 340 561 321 561 q 436 458 435 560 q 304 157 436 313 q 99 -12 210 45 q 50 -28 66 -28 q 33 -15 34 -28 q 41 17 33 1 q 68 33 50 33 q 146 82 86 33 q 279 236 207 132 q 378 471 378 378 q 361 490 378 489 z "},"4":{"ha":377,"x_min":18,"x_max":443,"o":"m 245 395 q 39 322 77 322 q 18 343 18 323 q 53 411 18 364 l 54 412 q 336 747 172 572 q 354 762 349 760 q 366 763 358 763 q 427 749 411 763 q 443 715 450 731 q 307 376 407 619 l 171 43 q 130 -33 142 -29 q 124 -13 124 -31 q 214 315 124 89 l 229 351 q 245 395 241 382 m 271 473 l 305 551 q 351 659 340 629 l 141 421 l 271 473 z "},"5":{"ha":313,"x_min":-53,"x_max":449,"o":"m 275 490 l 159 475 q 156 476 158 475 q 142 503 142 480 q 150 643 142 601 q 169 704 157 686 q 248 745 196 745 l 410 743 q 449 724 448 743 q 444 708 449 716 q 389 684 427 684 l 243 685 q 232 684 237 685 q 221 637 226 682 q 210 557 216 591 q 243 561 229 561 l 262 561 q 351 458 351 557 q 219 157 351 313 q 13 -12 125 45 q -36 -28 -20 -28 q -53 -15 -52 -28 q -44 17 -53 1 q -18 33 -36 33 q 45 68 1 33 q 194 236 121 131 q 293 471 293 378 q 275 490 292 489 z "},"6":{"ha":438,"x_min":96,"x_max":430,"o":"m 353 208 q 284 189 334 208 q 180 120 224 165 q 155 68 154 93 q 183 40 157 44 q 294 107 225 40 q 362 197 362 174 q 353 208 361 207 m 420 747 q 220 367 304 665 l 183 232 q 178 212 178 214 q 189 201 178 202 q 262 230 200 201 q 361 258 323 258 q 427 215 425 258 q 353 98 426 170 q 154 -37 220 -35 q 96 65 97 -36 q 195 481 96 218 q 282 676 250 628 q 311 710 294 693 q 411 762 363 762 q 430 758 429 762 q 420 747 430 754 z "},"7":{"ha":429,"x_min":-31,"x_max":485,"o":"m 221 646 l 170 633 q 153 648 155 633 q 181 689 153 680 q 400 747 371 747 q 457 724 429 747 q 485 656 485 701 q 422 526 484 612 q 353 441 411 511 l 47 74 q 21 9 45 71 q -18 -52 -3 -52 q -31 25 -31 -52 q 2 123 -28 78 q 148 301 41 174 l 281 461 q 410 689 410 625 l 410 693 q 221 646 401 691 z "},"8":{"ha":429,"x_min":62,"x_max":456,"o":"m 238 522 q 264 691 238 631 q 310 764 290 750 q 347 778 331 778 q 423 754 391 778 q 456 704 455 730 q 399 600 456 656 l 363 568 q 289 490 308 518 q 313 319 313 453 q 271 64 313 184 q 151 -66 227 -66 q 63 59 65 -66 q 62 66 63 63 q 234 494 62 270 q 238 509 239 500 q 238 522 238 518 m 168 16 l 171 16 q 233 99 206 16 q 244 410 281 245 q 173 289 220 395 q 123 97 126 182 q 123 90 123 93 q 168 16 123 22 m 282 557 q 334 624 292 572 q 390 722 376 676 q 312 657 342 707 q 282 557 282 607 z "},"9":{"ha":415,"x_min":46,"x_max":397,"o":"m 129 547 q 139 538 130 538 q 157 539 148 537 q 275 594 211 549 q 339 677 338 640 q 297 714 338 713 q 185 658 239 714 q 129 547 131 602 m 132 487 q 67 530 67 487 q 137 700 67 626 q 295 774 207 774 q 345 764 323 774 q 397 680 396 739 q 286 237 397 525 q 205 52 227 84 q 66 -49 137 -49 q 47 -46 47 -49 q 46 -43 47 -43 q 68 -26 52 -41 q 193 159 146 52 q 301 483 239 267 l 305 497 q 312 518 309 507 q 315 536 315 530 q 304 544 315 543 q 231 516 293 545 q 132 487 169 487 z "},"A":{"ha":428,"x_min":-51,"x_max":569,"o":"m 345 -111 q 315 -153 345 -153 q 286 -142 298 -153 q 255 -60 255 -116 q 263 54 255 -4 q 310 266 271 113 q 215 257 248 258 q -7 -58 107 76 q -33 -65 -16 -66 q -51 -54 -50 -65 q -31 -14 -51 -43 q -8 20 -12 16 l 143 257 q 16 268 39 258 q -8 300 -8 278 q 7 313 -8 311 q 189 330 118 324 l 340 581 l 383 767 q 410 792 389 791 q 446 789 431 792 q 494 745 494 778 q 471 641 494 741 q 395 342 449 541 q 544 345 451 345 q 559 332 551 345 q 569 298 568 319 q 513 282 568 284 q 376 273 457 281 q 303 -51 303 -9 q 324 -81 304 -62 q 345 -111 344 -96 m 273 359 l 259 334 l 328 339 q 347 439 341 397 q 316 422 345 458 q 273 359 288 387 z "},"Æ":{"ha":674,"x_min":-15,"x_max":724,"o":"m 380 -111 q 351 -153 380 -153 q 322 -142 334 -153 q 291 -60 292 -116 q 299 54 291 -4 q 346 266 307 113 q 251 257 283 258 q 28 -58 143 76 q 3 -65 20 -66 q -15 -54 -14 -65 q 5 -14 -15 -43 l 179 257 q 52 268 75 258 q 28 300 28 278 q 43 313 28 311 q 224 330 154 324 l 376 581 l 419 767 q 452 792 425 791 q 521 768 498 791 q 698 764 600 767 q 715 751 705 762 q 724 718 728 736 q 697 709 719 709 l 660 709 q 634 709 643 709 q 522 707 625 709 q 431 342 483 532 q 580 345 487 345 q 596 332 587 345 q 605 298 605 319 q 549 282 604 284 q 412 273 493 281 q 355 43 380 154 q 576 39 409 43 q 593 27 584 39 q 602 -5 602 15 q 576 -16 602 -16 q 502 -16 538 -16 q 412 -18 465 -16 q 340 -21 359 -20 q 340 -47 339 -32 q 361 -81 341 -62 q 380 -111 380 -96 m 309 359 l 295 334 l 364 339 q 383 439 377 397 q 352 422 381 458 q 309 359 323 387 z "},"Á":{"ha":428,"x_min":-51,"x_max":569,"o":"m 411 858 q 508 983 441 876 q 524 994 517 994 q 554 964 543 994 q 559 943 558 951 q 461 845 559 907 q 381 803 394 803 q 357 813 369 803 q 351 827 350 821 q 355 834 351 833 q 411 858 385 837 m 345 -111 q 315 -153 345 -153 q 286 -142 298 -153 q 255 -60 255 -116 q 263 54 255 -4 q 310 266 271 113 q 215 257 248 258 q -7 -58 107 76 q -33 -65 -16 -66 q -51 -54 -50 -65 q -31 -14 -51 -43 q -8 20 -12 16 l 143 257 q 16 268 39 258 q -8 300 -8 278 q 7 313 -8 311 q 189 330 118 324 l 340 581 l 383 767 q 410 792 389 791 q 446 789 431 792 q 494 745 494 778 q 471 641 494 741 q 395 342 449 541 q 544 345 451 345 q 559 332 551 345 q 569 298 568 319 q 513 282 568 284 q 376 273 457 281 q 303 -51 303 -9 q 324 -81 304 -62 q 345 -111 344 -96 m 273 359 l 259 334 l 328 339 q 347 439 341 397 q 316 422 345 458 q 273 359 288 387 z "},"Â":{"ha":428,"x_min":-51,"x_max":569,"o":"m 505 899 q 408 815 460 865 q 388 802 393 802 q 374 826 374 803 q 392 866 374 848 q 447 915 410 883 q 500 964 483 946 q 531 982 518 982 q 551 969 545 982 q 558 950 558 956 q 553 910 558 944 q 545 856 549 877 q 527 822 542 834 q 502 810 511 810 q 495 826 495 811 q 505 899 494 841 m 345 -111 q 315 -153 345 -153 q 286 -142 298 -153 q 255 -60 255 -116 q 263 54 255 -4 q 310 266 271 113 q 215 257 248 258 q -7 -58 107 76 q -33 -65 -16 -66 q -51 -54 -50 -65 q -31 -14 -51 -43 q -8 20 -12 16 l 143 257 q 16 268 39 258 q -8 300 -8 278 q 7 313 -8 311 q 189 330 118 324 l 340 581 l 383 767 q 410 792 389 791 q 446 789 431 792 q 494 745 494 778 q 471 641 494 741 q 395 342 449 541 q 544 345 451 345 q 559 332 551 345 q 569 298 568 319 q 513 282 568 284 q 376 273 457 281 q 303 -51 303 -9 q 324 -81 304 -62 q 345 -111 344 -96 m 273 359 l 259 334 l 328 339 q 347 439 341 397 q 316 422 345 458 q 273 359 288 387 z "},"Ä":{"ha":428,"x_min":-51,"x_max":635,"o":"m 481 848 q 532 905 511 863 q 548 966 539 917 q 562 1035 557 1016 q 586 1055 566 1055 q 620 1038 605 1056 q 635 1010 635 1021 q 569 888 635 976 q 530 842 547 858 q 480 835 503 814 q 481 848 473 842 m 411 866 q 433 938 423 882 q 448 1012 443 993 q 472 1031 452 1031 q 506 1014 491 1031 q 521 985 521 997 q 455 863 521 957 q 422 825 437 839 q 395 808 405 809 q 378 814 385 807 q 374 830 366 825 q 411 866 397 844 m 345 -111 q 315 -153 345 -153 q 286 -142 298 -153 q 255 -60 255 -116 q 263 54 255 -4 q 310 266 271 113 q 215 257 248 258 q -7 -58 107 76 q -33 -65 -16 -66 q -51 -54 -50 -65 q -31 -14 -51 -43 q -8 20 -12 16 l 143 257 q 16 268 39 258 q -8 300 -8 278 q 7 313 -8 311 q 189 330 118 324 l 340 581 l 383 767 q 410 792 389 791 q 446 789 431 792 q 494 745 494 778 q 471 641 494 741 q 395 342 449 541 q 544 345 451 345 q 559 332 551 345 q 569 298 568 319 q 513 282 568 284 q 376 273 457 281 q 303 -51 303 -9 q 324 -81 304 -62 q 345 -111 344 -96 m 273 359 l 259 334 l 328 339 q 347 439 341 397 q 316 422 345 458 q 273 359 288 387 z "},"À":{"ha":428,"x_min":-51,"x_max":569,"o":"m 413 1010 q 424 1002 419 1010 q 452 943 429 994 q 498 865 475 893 q 555 827 521 836 l 555 827 q 559 821 559 825 q 553 808 559 817 q 535 800 547 800 q 443 863 515 800 q 372 961 372 926 q 378 985 372 972 q 413 1010 392 1010 m 345 -111 q 315 -153 345 -153 q 286 -142 298 -153 q 255 -60 255 -116 q 263 54 255 -4 q 310 266 271 113 q 215 257 248 258 q -7 -58 107 76 q -33 -65 -16 -66 q -51 -54 -50 -65 q -31 -14 -51 -43 q -8 20 -12 16 l 143 257 q 16 268 39 258 q -8 300 -8 278 q 7 313 -8 311 q 189 330 118 324 l 340 581 l 383 767 q 410 792 389 791 q 446 789 431 792 q 494 745 494 778 q 471 641 494 741 q 395 342 449 541 q 544 345 451 345 q 559 332 551 345 q 569 298 568 319 q 513 282 568 284 q 376 273 457 281 q 303 -51 303 -9 q 324 -81 304 -62 q 345 -111 344 -96 m 273 359 l 259 334 l 328 339 q 347 439 341 397 q 316 422 345 458 q 273 359 288 387 z "},"Å":{"ha":428,"x_min":-51,"x_max":572,"o":"m 481 804 q 387 897 387 804 q 393 922 387 909 q 494 968 416 968 q 530 962 515 968 q 572 888 572 944 q 557 839 572 861 q 481 804 531 804 m 526 885 q 481 929 526 929 q 440 919 459 929 q 422 890 422 909 q 474 838 422 838 q 494 841 484 838 q 526 885 526 851 m 345 -111 q 315 -153 345 -153 q 286 -142 298 -153 q 255 -60 255 -116 q 263 54 255 -4 q 310 266 271 113 q 215 257 248 258 q -7 -58 107 76 q -33 -65 -16 -66 q -51 -54 -50 -65 q -31 -14 -51 -43 q -8 20 -12 16 l 143 257 q 16 268 39 258 q -8 300 -8 278 q 7 313 -8 311 q 189 330 118 324 l 340 581 l 383 767 q 410 792 389 791 q 446 789 431 792 q 494 745 494 778 q 471 641 494 741 q 395 342 449 541 q 544 345 451 345 q 559 332 551 345 q 569 298 568 319 q 513 282 568 284 q 376 273 457 281 q 303 -51 303 -9 q 324 -81 304 -62 q 345 -111 344 -96 m 273 359 l 259 334 l 328 339 q 347 439 341 397 q 316 422 345 458 q 273 359 288 387 z "},"Ã":{"ha":428,"x_min":-51,"x_max":575,"o":"m 444 882 q 480 959 466 911 q 520 1015 497 1015 q 559 996 544 1015 q 575 965 575 977 q 568 936 575 953 q 460 828 538 865 q 351 804 408 804 q 293 823 294 804 q 319 832 294 832 q 444 882 405 832 m 345 -111 q 315 -153 345 -153 q 286 -142 298 -153 q 255 -60 255 -116 q 263 54 255 -4 q 310 266 271 113 q 215 257 248 258 q -7 -58 107 76 q -33 -65 -16 -66 q -51 -54 -50 -65 q -31 -14 -51 -43 q -8 20 -12 16 l 143 257 q 16 268 39 258 q -8 300 -8 278 q 7 313 -8 311 q 189 330 118 324 l 340 581 l 383 767 q 410 792 389 791 q 446 789 431 792 q 494 745 494 778 q 471 641 494 741 q 395 342 449 541 q 544 345 451 345 q 559 332 551 345 q 569 298 568 319 q 513 282 568 284 q 376 273 457 281 q 303 -51 303 -9 q 324 -81 304 -62 q 345 -111 344 -96 m 273 359 l 259 334 l 328 339 q 347 439 341 397 q 316 422 345 458 q 273 359 288 387 z "},"B":{"ha":387,"x_min":43,"x_max":445,"o":"m 436 718 q 353 593 436 673 q 349 590 351 591 q 426 532 396 590 q 445 458 445 494 q 347 211 445 353 q 163 11 273 106 q 110 -29 121 -26 q 93 -33 98 -33 q 57 -12 71 -33 q 43 22 44 9 q 192 589 43 75 l 234 734 q 306 788 246 777 q 337 791 321 791 q 414 767 391 791 q 436 718 436 743 m 281 701 q 259 602 273 649 q 332 662 310 631 q 373 731 355 692 q 286 704 332 730 l 281 701 m 373 533 q 219 433 294 500 q 171 257 216 417 q 123 77 126 96 q 258 203 186 115 q 391 510 391 366 q 380 535 390 534 q 373 533 378 535 z "},"C":{"ha":488,"x_min":72,"x_max":547,"o":"m 317 376 q 298 392 298 376 q 311 413 299 399 q 345 473 323 427 q 394 633 394 572 q 388 656 394 644 q 354 685 374 685 q 175 316 286 684 q 145 126 145 219 q 157 72 145 100 q 226 18 180 18 q 391 83 307 18 q 479 155 420 106 q 543 205 537 205 q 547 199 545 204 q 431 47 546 149 q 235 -37 334 -37 q 125 -2 165 -37 q 72 172 72 45 q 135 469 72 300 q 302 736 198 638 q 351 758 326 757 q 472 680 472 758 q 407 507 472 637 q 317 376 342 376 z "},"Ç":{"ha":488,"x_min":72,"x_max":547,"o":"m 317 376 q 298 392 298 376 q 311 414 299 399 q 345 473 323 428 q 394 633 394 572 q 388 656 393 644 q 354 685 376 685 q 308 650 333 685 q 175 316 250 565 q 145 126 145 218 q 157 72 145 100 q 226 18 180 18 q 391 83 307 18 q 477 154 418 104 q 543 205 536 205 q 547 199 545 204 q 431 47 546 149 q 235 -37 330 -37 l 235 -37 q 231 -47 231 -41 q 256 -59 231 -53 l 273 -63 q 323 -121 323 -78 q 306 -158 323 -135 q 267 -180 290 -180 q 243 -176 245 -180 q 262 -157 244 -172 q 279 -132 279 -142 q 273 -113 279 -123 q 243 -96 268 -103 q 213 -87 218 -89 q 182 -56 182 -77 q 187 -32 182 -44 q 125 -2 151 -24 q 72 172 72 44 q 135 469 72 300 q 302 736 199 638 q 351 758 326 757 q 472 680 472 758 q 407 507 472 637 q 317 376 342 376 z "},"D":{"ha":411,"x_min":73,"x_max":500,"o":"m 273 646 l 242 661 q 314 760 254 737 q 354 767 333 767 q 456 723 412 767 q 500 625 500 680 q 471 463 501 555 q 212 37 397 243 l 165 -13 q 129 -38 138 -37 q 73 18 100 -37 q 161 300 81 43 q 273 646 241 557 m 333 691 q 312 564 333 635 q 281 463 290 493 q 229 305 272 433 q 165 94 186 178 q 267 226 217 149 q 272 233 270 230 q 427 682 427 472 q 414 710 427 706 q 406 711 410 711 q 333 691 363 710 z "},"E":{"ha":401,"x_min":23,"x_max":553,"o":"m 227 -16 l 35 -22 q 23 -17 24 -21 q 35 16 24 -3 q 189 524 56 114 q 157 523 163 523 q 155 526 155 524 q 170 571 155 556 q 194 587 184 587 q 210 587 203 587 l 250 707 q 277 764 255 749 q 332 768 284 768 q 527 764 379 768 q 551 734 544 763 q 553 722 553 728 q 519 709 553 709 q 488 709 504 709 q 438 709 471 709 q 325 707 405 709 l 287 587 q 431 583 355 585 q 455 552 448 582 q 457 540 457 545 q 431 527 454 527 l 360 528 q 267 527 318 528 l 104 43 q 191 41 142 42 q 302 39 239 41 q 329 -5 329 38 q 303 -17 328 -17 q 258 -16 278 -16 l 227 -16 z "},"É":{"ha":436,"x_min":23,"x_max":553,"o":"m 378 862 q 475 987 408 880 q 491 998 484 998 q 521 968 509 998 q 526 947 525 956 q 428 849 526 911 q 348 807 361 807 q 324 817 336 807 q 317 831 317 825 q 322 838 318 837 q 378 862 352 841 m 227 -16 l 35 -22 q 23 -17 24 -21 q 35 16 24 -3 q 189 524 56 114 q 157 523 163 523 q 155 526 155 524 q 170 571 155 556 q 194 587 184 587 q 210 587 203 587 l 250 707 q 277 764 255 749 q 332 768 284 768 q 527 764 379 768 q 551 734 544 763 q 553 722 553 728 q 519 709 553 709 q 488 709 504 709 q 438 709 471 709 q 325 707 405 709 l 287 587 q 431 583 355 585 q 455 552 448 582 q 457 540 457 545 q 431 527 454 527 l 360 528 q 267 527 318 528 l 104 43 q 191 41 142 42 q 302 39 239 41 q 329 -5 329 38 q 303 -17 328 -17 q 258 -16 278 -16 l 227 -16 z "},"Ê":{"ha":436,"x_min":23,"x_max":553,"o":"m 467 899 q 370 814 422 865 q 350 801 355 801 q 336 825 336 802 q 354 865 336 848 q 409 914 372 882 q 463 963 445 945 q 493 981 480 981 q 513 968 507 981 q 520 949 520 956 q 515 910 520 943 q 507 855 511 876 q 489 821 504 833 q 464 809 473 809 q 457 825 457 810 q 467 899 456 840 m 227 -16 l 35 -22 q 23 -17 24 -21 q 35 16 24 -3 q 189 524 56 114 q 157 523 163 523 q 155 526 155 524 q 170 571 155 556 q 194 587 184 587 q 210 587 203 587 l 250 707 q 277 764 255 749 q 332 768 284 768 q 527 764 379 768 q 551 734 544 763 q 553 722 553 728 q 519 709 553 709 q 488 709 504 709 q 438 709 471 709 q 325 707 405 709 l 287 587 q 431 583 355 585 q 455 552 448 582 q 457 540 457 545 q 431 527 454 527 l 360 528 q 267 527 318 528 l 104 43 q 191 41 142 42 q 302 39 239 41 q 329 -5 329 38 q 303 -17 328 -17 q 258 -16 278 -16 l 227 -16 z "},"Ë":{"ha":436,"x_min":23,"x_max":593,"o":"m 439 850 q 490 907 469 865 q 506 968 497 919 q 519 1037 515 1018 q 544 1057 524 1057 q 578 1040 563 1058 q 593 1012 593 1023 q 527 890 593 978 q 488 844 505 860 q 438 837 460 817 q 439 850 431 844 m 369 868 q 391 940 381 884 q 406 1014 401 995 q 430 1033 410 1033 q 464 1016 449 1034 q 479 987 479 999 q 413 865 479 959 q 380 827 395 841 q 353 810 363 811 q 336 816 343 809 q 332 832 323 827 q 369 868 355 846 m 227 -16 l 35 -22 q 23 -17 24 -21 q 35 16 24 -3 q 189 524 56 114 q 157 523 163 523 q 155 526 155 524 q 170 571 155 556 q 194 587 184 587 q 210 587 203 587 l 250 707 q 277 764 255 749 q 332 768 284 768 q 527 764 379 768 q 551 734 544 763 q 553 722 553 728 q 519 709 553 709 q 488 709 504 709 q 438 709 471 709 q 325 707 405 709 l 287 587 q 431 583 355 585 q 455 552 448 582 q 457 540 457 545 q 431 527 454 527 l 360 528 q 267 527 318 528 l 104 43 q 191 41 142 42 q 302 39 239 41 q 329 -5 329 38 q 303 -17 328 -17 q 258 -16 278 -16 l 227 -16 z "},"È":{"ha":436,"x_min":23,"x_max":553,"o":"m 349 1011 q 359 1002 355 1010 q 388 944 364 994 q 434 865 411 894 q 490 828 456 837 l 491 827 q 495 821 495 825 q 488 809 495 817 q 471 801 483 801 q 379 864 450 801 q 307 962 307 926 q 314 985 307 973 q 349 1011 328 1011 m 227 -16 l 35 -22 q 23 -17 24 -21 q 35 16 24 -3 q 189 524 56 114 q 157 523 163 523 q 155 526 155 524 q 170 571 155 556 q 194 587 184 587 q 210 587 203 587 l 250 707 q 277 764 255 749 q 332 768 284 768 q 527 764 379 768 q 551 734 544 763 q 553 722 553 728 q 519 709 553 709 q 488 709 504 709 q 438 709 471 709 q 325 707 405 709 l 287 587 q 431 583 355 585 q 455 552 448 582 q 457 540 457 545 q 431 527 454 527 l 360 528 q 267 527 318 528 l 104 43 q 191 41 142 42 q 302 39 239 41 q 329 -5 329 38 q 303 -17 328 -17 q 258 -16 278 -16 l 227 -16 z "},"Ð":{"ha":435,"x_min":75,"x_max":507,"o":"m 278 646 l 248 661 q 319 760 260 737 q 359 767 338 767 q 463 724 418 767 q 507 625 507 680 q 476 463 507 555 q 217 37 403 243 l 170 -13 q 134 -38 144 -37 q 78 18 105 -37 q 132 187 87 43 l 195 393 q 143 392 178 392 q 93 395 108 392 q 75 426 75 406 q 82 437 76 435 q 214 452 157 447 q 278 646 257 589 m 348 424 q 324 411 347 412 q 268 406 300 410 q 170 94 190 174 q 273 226 222 149 q 432 682 432 464 q 419 710 432 706 q 411 711 415 711 q 338 691 368 710 q 317 564 338 635 q 292 477 296 493 l 286 458 q 336 459 321 459 q 348 424 345 453 z "},"F":{"ha":405,"x_min":-107,"x_max":662,"o":"m 115 18 q 17 -86 72 -49 q -73 -123 -38 -123 q -107 -109 -107 -123 q -99 -102 -107 -104 q -90 -99 -90 -100 q 117 165 43 -70 q 157 318 134 217 l 204 517 l 188 517 q 177 528 178 518 q 201 577 177 557 q 220 587 210 585 q 274 785 262 763 q 301 811 286 808 q 332 814 316 814 q 351 795 351 814 q 348 771 351 781 q 625 777 485 775 q 658 749 646 777 q 662 734 661 740 q 610 720 661 720 q 330 706 503 718 l 300 589 q 533 593 447 593 q 565 566 554 593 q 569 550 568 556 q 508 535 568 536 q 283 522 448 534 l 251 392 q 115 18 182 123 z "},"G":{"ha":429,"x_min":-71,"x_max":576,"o":"m 385 598 q 368 612 374 598 q 358 677 368 654 q 340 701 348 701 q 223 492 286 701 q 153 176 174 331 q 148 111 148 135 q 158 85 148 86 q 245 196 193 87 q 320 408 298 305 q 326 454 326 435 q 311 457 317 454 q 292 487 293 467 q 299 498 293 496 q 563 522 480 522 q 576 486 573 517 q 557 474 575 475 q 471 465 514 472 q 424 456 429 457 q 407 381 408 389 q 401 350 406 373 q 158 -387 295 -195 q 56 -486 111 -452 q -30 -519 1 -519 q -71 -503 -71 -519 q -61 -496 -71 -498 q -52 -494 -52 -494 q 51 -431 0 -486 q 73 -404 64 -417 q 292 113 187 -245 q 311 184 305 159 q 138 -28 225 -28 q 71 60 71 -28 q 132 370 71 149 q 246 707 193 591 q 283 772 267 753 q 328 792 299 791 q 401 703 391 792 q 403 640 404 680 q 385 598 401 599 z "},"H":{"ha":469,"x_min":-30,"x_max":547,"o":"m 545 819 l 454 464 l 487 464 q 523 465 511 465 q 546 431 538 465 q 547 418 547 423 q 513 402 547 403 q 436 399 479 402 l 408 295 q 347 -57 347 83 q 406 -248 347 -196 q 418 -262 418 -256 q 407 -269 417 -269 q 386 -262 397 -269 q 299 -126 328 -231 q 285 -25 285 -73 q 344 329 285 100 l 360 393 l 249 381 q 150 13 168 58 q 115 -62 132 -33 q 62 -125 99 -92 q 9 -157 25 -157 q -8 -150 -7 -156 q 0 -132 -8 -144 q 147 266 91 7 l 174 376 l 172 376 q 10 380 33 376 q -21 398 -13 385 q -30 420 -29 411 q -17 432 -30 430 q -14 433 -15 432 l 193 451 l 261 729 q 268 762 264 739 q 283 793 273 785 q 326 802 293 802 q 347 783 346 800 q 346 772 347 776 l 267 456 q 378 462 343 460 l 460 777 q 466 811 463 787 q 480 842 470 834 q 525 850 491 850 q 545 830 545 848 q 545 819 545 823 z "},"I":{"ha":255,"x_min":-12,"x_max":343,"o":"m 257 729 q 264 762 260 739 q 279 793 269 785 q 316 801 289 802 q 343 788 342 800 q 267 467 343 776 q 164 73 191 159 q 117 -53 138 -14 q 58 -125 95 -92 q 5 -157 21 -157 q -12 -150 -12 -156 q -4 -132 -12 -144 q 134 230 74 -13 l 257 729 z "},"Í":{"ha":182,"x_min":-12,"x_max":406,"o":"m 258 858 q 355 983 289 876 q 372 994 364 994 q 401 964 390 994 q 406 943 406 951 q 309 845 406 907 q 229 803 241 803 q 205 813 216 803 q 198 827 197 821 q 203 834 199 833 q 258 858 233 837 m 257 729 q 264 762 260 739 q 279 793 269 785 q 316 801 289 802 q 343 788 342 800 q 267 467 343 776 q 164 73 191 159 q 117 -53 138 -14 q 58 -125 95 -92 q 5 -157 21 -157 q -12 -150 -12 -156 q -4 -132 -12 -144 q 134 230 74 -13 l 257 729 z "},"Î":{"ha":182,"x_min":-12,"x_max":412,"o":"m 359 901 q 262 817 315 867 q 242 803 247 803 q 229 827 229 804 q 247 867 229 850 q 301 916 264 884 q 355 965 337 947 q 386 983 372 983 q 406 970 399 983 q 412 951 412 958 q 408 912 412 945 q 399 857 403 878 q 381 823 396 836 q 356 811 366 811 q 349 827 349 812 q 359 901 349 842 m 257 729 q 264 762 260 739 q 279 793 269 785 q 316 801 289 802 q 343 788 342 800 q 267 467 343 776 q 164 73 191 159 q 117 -53 138 -14 q 58 -125 95 -92 q 5 -157 21 -157 q -12 -150 -12 -156 q -4 -132 -12 -144 q 134 230 74 -13 l 257 729 z "},"Ï":{"ha":182,"x_min":-12,"x_max":488,"o":"m 334 848 q 386 905 364 863 q 401 966 393 917 q 415 1035 410 1016 q 439 1055 420 1055 q 473 1038 458 1056 q 488 1010 488 1021 q 422 888 488 976 q 384 842 400 858 q 334 835 356 814 q 334 848 327 842 m 264 866 q 287 938 277 882 q 301 1012 296 993 q 325 1031 306 1031 q 359 1014 345 1031 q 374 985 374 997 q 309 863 374 957 q 276 825 291 839 q 249 808 258 809 q 231 814 239 807 q 228 830 219 825 q 264 866 250 844 m 257 729 q 264 762 260 739 q 279 793 269 785 q 316 801 289 802 q 343 788 342 800 q 267 467 343 776 q 164 73 191 159 q 117 -53 138 -14 q 58 -125 95 -92 q 5 -157 21 -157 q -12 -150 -12 -156 q -4 -132 -12 -144 q 134 230 74 -13 l 257 729 z "},"Ì":{"ha":182,"x_min":-12,"x_max":423,"o":"m 277 1013 q 288 1004 283 1013 q 316 946 292 996 q 362 867 339 896 q 418 830 385 839 l 419 829 q 423 823 423 827 q 416 811 423 819 q 399 803 411 803 q 307 866 378 803 q 235 964 235 928 q 242 987 235 975 q 277 1013 256 1013 m 257 729 q 264 762 260 739 q 279 793 269 785 q 316 801 289 802 q 343 788 342 800 q 267 467 343 776 q 164 73 191 159 q 117 -53 138 -14 q 58 -125 95 -92 q 5 -157 21 -157 q -12 -150 -12 -156 q -4 -132 -12 -144 q 134 230 74 -13 l 257 729 z "},"J":{"ha":251,"x_min":-189,"x_max":343,"o":"m 134 -114 q -67 -487 43 -393 q -151 -530 -117 -530 q -189 -512 -189 -531 q -180 -504 -189 -507 q -171 -500 -171 -501 q -75 -421 -122 -484 q -47 -376 -59 -399 q 80 -39 25 -228 q 221 552 135 149 q 236 629 225 570 q 254 713 248 687 q 264 762 260 739 q 278 793 267 785 q 323 802 288 802 q 343 783 342 800 q 327 708 343 776 q 248 339 310 641 q 134 -114 185 38 z "},"K":{"ha":479,"x_min":76,"x_max":577,"o":"m 345 804 q 352 795 351 803 q 275 514 352 787 l 484 762 q 502 769 490 769 q 524 758 514 769 q 533 735 534 746 q 479 661 533 723 l 366 524 q 421 139 401 212 q 461 18 440 66 q 524 -64 481 -31 q 559 -84 543 -79 q 577 -96 576 -90 q 553 -105 576 -105 q 418 -14 481 -105 q 361 112 386 34 q 323 295 337 190 q 304 444 309 399 l 230 348 q 182 179 219 307 q 139 24 146 50 l 130 -12 q 119 -33 124 -33 q 88 -11 100 -33 q 76 20 77 11 q 218 579 76 72 l 269 758 q 290 783 275 774 q 345 804 328 804 z "},"L":{"ha":421,"x_min":28,"x_max":486,"o":"m 264 763 q 361 867 307 829 q 451 904 416 904 q 486 890 486 904 q 470 880 486 884 l 469 880 q 263 621 338 850 q 188 324 247 569 q 125 62 130 79 l 118 37 q 401 42 262 42 q 435 14 423 42 q 438 -1 438 5 q 371 -16 437 -15 q 180 -24 305 -16 q 52 -33 56 -33 q 28 -16 28 -33 q 44 53 28 1 q 107 303 60 104 l 128 389 q 264 763 193 650 z "},"M":{"ha":472,"x_min":7,"x_max":550,"o":"m 13 -41 q 7 -10 -29 -40 q 16 -2 13 -5 q 93 96 72 50 q 261 637 102 117 l 262 637 l 262 639 q 271 675 264 646 q 314 811 295 789 q 346 833 332 833 q 381 814 378 831 q 375 787 381 810 q 323 521 323 612 q 334 497 323 509 q 347 486 345 486 q 416 607 365 487 q 481 753 467 726 q 504 780 494 780 q 540 772 531 780 q 550 761 549 764 q 536 721 550 758 q 442 421 522 683 q 343 75 362 159 q 325 -48 325 -8 q 346 -75 326 -61 q 370 -105 370 -91 q 343 -150 369 -149 q 279 -31 279 -149 q 321 205 279 65 q 370 380 370 370 q 341 340 360 356 q 308 323 321 323 q 276 346 294 323 q 257 382 258 368 q 257 401 256 397 q 207 239 244 374 q 130 39 170 103 q 13 -41 80 -41 z "},"N":{"ha":419,"x_min":-12,"x_max":559,"o":"m 239 -54 l 245 265 q 244 322 245 290 q 56 -202 92 -116 q -8 -258 28 -255 q -12 -253 -12 -256 q 1 -221 -12 -250 q 132 183 24 -176 q 302 782 296 732 q 332 817 309 817 q 385 792 381 817 q 354 645 382 770 q 323 500 326 520 q 312 419 321 480 q 302 338 302 359 q 304 312 302 317 q 358 515 321 368 q 413 709 395 661 q 433 766 430 757 q 519 932 488 932 q 544 921 528 932 q 559 894 559 909 q 546 855 559 878 q 433 598 500 777 q 297 10 304 250 l 297 9 q 271 -81 294 -81 q 255 -80 262 -81 q 239 -54 239 -76 z "},"Ñ":{"ha":419,"x_min":-12,"x_max":560,"o":"m 429 961 q 465 1038 451 990 q 506 1094 482 1094 q 545 1075 529 1094 q 560 1043 560 1055 q 553 1015 560 1031 q 446 907 524 944 q 336 882 393 882 q 278 902 279 882 q 304 911 279 911 q 429 961 390 911 m 239 -54 l 245 265 q 244 322 245 290 q 56 -202 92 -116 q -8 -258 28 -255 q -12 -253 -12 -256 q 1 -221 -12 -250 q 132 183 24 -176 q 302 782 296 732 q 332 817 309 817 q 385 792 381 817 q 354 645 382 770 q 323 500 326 520 q 312 419 321 480 q 302 338 302 359 q 304 312 302 317 q 358 515 321 368 q 413 709 395 661 q 433 766 430 757 q 519 932 488 932 q 544 921 528 932 q 559 894 559 909 q 546 855 559 878 q 433 598 500 777 q 297 10 304 250 l 297 9 q 271 -81 294 -81 q 255 -80 262 -81 q 239 -54 239 -76 z "},"O":{"ha":375,"x_min":81,"x_max":425,"o":"m 149 -28 q 81 54 81 -28 q 135 342 81 136 q 256 696 190 549 q 272 731 270 726 q 335 781 298 781 q 387 762 372 781 q 425 646 421 720 q 422 522 429 572 q 290 109 387 248 l 276 88 q 149 -28 198 -28 m 376 627 q 355 690 368 690 q 211 347 306 687 q 159 110 159 159 q 160 99 159 109 q 168 90 161 90 q 194 109 177 91 q 296 288 241 163 q 378 601 378 473 q 376 627 378 611 z "},"Ó":{"ha":375,"x_min":81,"x_max":470,"o":"m 322 858 q 419 983 353 876 q 435 994 428 994 q 465 964 454 994 q 470 943 469 951 q 372 845 470 907 q 293 803 305 803 q 269 813 280 803 q 262 827 261 821 q 267 834 262 833 q 322 858 296 837 m 149 -28 q 81 54 81 -28 q 135 342 81 136 q 256 696 190 549 q 272 731 270 726 q 335 781 298 781 q 387 762 372 781 q 425 646 421 720 q 422 522 429 572 q 290 109 387 248 l 276 88 q 149 -28 198 -28 m 376 627 q 355 690 368 690 q 211 347 306 687 q 159 110 159 159 q 160 99 159 109 q 168 90 161 90 q 194 109 177 91 q 296 288 241 163 q 378 601 378 473 q 376 627 378 611 z "},"Ô":{"ha":375,"x_min":81,"x_max":468,"o":"m 415 899 q 318 814 370 865 q 298 801 302 801 q 284 825 284 802 q 302 865 284 848 q 356 914 320 882 q 410 963 393 945 q 441 981 428 981 q 461 968 454 981 q 468 949 468 956 q 463 910 468 943 q 455 855 458 876 q 436 821 452 833 q 412 809 421 809 q 405 825 405 810 q 415 899 404 840 m 149 -28 q 81 54 81 -28 q 135 342 81 136 q 256 696 190 549 q 272 731 270 726 q 335 781 298 781 q 387 762 372 781 q 425 646 421 720 q 422 522 429 572 q 290 109 387 248 l 276 88 q 149 -28 198 -28 m 376 627 q 355 690 368 690 q 211 347 306 687 q 159 110 159 159 q 160 99 159 109 q 168 90 161 90 q 194 109 177 91 q 296 288 241 163 q 378 601 378 473 q 376 627 378 611 z "},"Ö":{"ha":375,"x_min":81,"x_max":547,"o":"m 393 848 q 444 905 422 863 q 460 966 451 917 q 473 1035 469 1016 q 497 1055 478 1055 q 532 1038 517 1056 q 547 1010 547 1021 q 481 888 547 976 q 442 842 458 858 q 392 835 414 814 q 393 848 385 842 m 323 866 q 345 938 335 882 q 359 1012 355 993 q 384 1031 364 1031 q 418 1014 403 1031 q 433 985 433 997 q 367 863 433 957 q 334 825 349 839 q 307 808 317 809 q 290 814 297 807 q 286 830 277 825 q 323 866 309 844 m 149 -28 q 81 54 81 -28 q 135 342 81 136 q 256 696 190 549 q 272 731 270 726 q 335 781 298 781 q 387 762 372 781 q 425 646 421 720 q 422 522 429 572 q 290 109 387 248 l 276 88 q 149 -28 198 -28 m 376 627 q 355 690 368 690 q 211 347 306 687 q 159 110 159 159 q 160 99 159 109 q 168 90 161 90 q 194 109 177 91 q 296 288 241 163 q 378 601 378 473 q 376 627 378 611 z "},"Ò":{"ha":375,"x_min":81,"x_max":476,"o":"m 330 1010 q 340 1002 336 1010 q 369 943 345 994 q 415 865 392 893 q 471 827 437 836 l 472 827 q 476 821 476 825 q 469 808 476 817 q 452 800 464 800 q 360 863 431 800 q 288 961 288 926 q 295 985 288 972 q 330 1010 309 1010 m 149 -28 q 81 54 81 -28 q 135 342 81 136 q 256 696 190 549 q 272 731 270 726 q 335 781 298 781 q 387 762 372 781 q 425 646 421 720 q 422 522 429 572 q 290 109 387 248 l 276 88 q 149 -28 198 -28 m 376 627 q 355 690 368 690 q 211 347 306 687 q 159 110 159 159 q 160 99 159 109 q 168 90 161 90 q 194 109 177 91 q 296 288 241 163 q 378 601 378 473 q 376 627 378 611 z "},"Ø":{"ha":375,"x_min":7,"x_max":509,"o":"m 376 627 q 355 690 368 690 q 223 389 309 687 l 376 623 l 376 627 m 149 -28 q 81 60 81 -28 q 18 12 44 10 q 7 16 15 12 q 7 52 -11 22 l 100 197 q 130 325 111 252 q 256 696 190 549 q 272 731 270 726 q 335 781 298 781 q 391 758 372 781 q 420 687 410 734 l 458 743 q 474 751 465 752 q 489 748 483 750 q 509 722 511 738 q 483 671 507 706 l 427 588 q 422 522 426 552 q 290 109 387 248 l 255 58 q 149 -28 193 -28 m 365 490 l 317 411 q 203 229 235 274 l 169 181 q 159 120 159 132 q 168 90 159 90 q 194 109 177 91 q 293 281 241 163 q 365 490 345 399 z "},"Õ":{"ha":375,"x_min":81,"x_max":506,"o":"m 374 882 q 411 959 397 911 q 451 1015 428 1015 q 490 996 475 1015 q 506 965 506 977 q 499 936 506 953 q 391 828 469 865 q 282 804 339 804 q 224 823 224 804 q 250 832 225 832 q 374 882 336 832 m 149 -28 q 81 54 81 -28 q 135 342 81 136 q 256 696 190 549 q 272 731 270 726 q 335 781 298 781 q 387 762 372 781 q 425 646 421 720 q 422 522 429 572 q 290 109 387 248 l 276 88 q 149 -28 198 -28 m 376 627 q 355 690 368 690 q 211 347 306 687 q 159 110 159 159 q 160 99 159 109 q 168 90 161 90 q 194 109 177 91 q 296 288 241 163 q 378 601 378 473 q 376 627 378 611 z "},"P":{"ha":422,"x_min":-132,"x_max":481,"o":"m 225 266 q 395 533 342 388 q 420 637 414 587 q 373 658 406 659 q 327 644 341 658 q 286 483 317 608 q 225 266 254 358 m 312 779 l 338 783 q 361 770 358 783 q 356 744 361 767 q 351 715 351 722 q 374 716 359 716 q 469 681 443 716 q 481 644 481 665 q 413 420 481 549 q 277 232 345 292 q 215 199 240 199 q 85 -159 154 -52 q -10 -257 44 -222 q -94 -293 -64 -293 q -128 -287 -124 -293 q -132 -278 -132 -281 q -123 -273 -132 -275 q -115 -270 -115 -271 q -14 -201 -62 -257 q 146 199 71 -98 l 224 517 q 284 747 273 720 q 311 779 296 774 q 312 779 312 779 z "},"Q":{"ha":378,"x_min":74,"x_max":450,"o":"m 142 -28 q 74 54 74 -28 q 129 342 74 136 q 250 696 184 549 q 266 731 264 726 q 332 781 292 781 q 383 759 359 781 q 413 660 407 737 q 414 529 419 583 q 283 109 382 249 l 273 94 q 258 72 264 79 q 298 -17 279 8 q 424 -67 337 -66 q 450 -76 448 -67 q 389 -96 448 -96 q 328 -89 359 -96 q 197 -3 243 -67 q 142 -28 168 -28 m 370 627 q 349 690 362 690 q 205 347 299 687 q 153 110 153 159 q 154 99 153 109 q 162 90 155 90 q 188 109 171 91 q 290 288 235 163 q 372 601 372 473 q 370 627 372 611 z "},"R":{"ha":487,"x_min":64,"x_max":565,"o":"m 480 688 q 355 519 480 580 q 395 219 377 334 q 463 -5 419 62 q 549 -85 500 -68 q 565 -96 564 -88 q 534 -105 564 -104 q 431 -43 483 -104 q 359 83 378 18 q 356 94 357 89 q 288 490 317 218 l 252 477 q 118 -16 152 159 q 107 -33 113 -31 q 80 -16 96 -32 q 65 21 65 1 q 111 226 64 42 q 256 734 158 410 q 267 756 259 746 q 359 791 295 791 q 438 764 396 791 q 480 688 480 736 m 313 716 q 287 612 307 683 q 264 535 267 541 q 312 549 288 540 q 406 671 407 589 q 406 682 406 675 q 366 728 398 728 q 313 716 334 728 z "},"S":{"ha":304,"x_min":-2,"x_max":401,"o":"m 73 119 l 68 73 q 87 45 68 46 q 170 237 144 45 l 237 755 q 247 782 239 768 q 300 814 267 814 q 367 789 332 814 q 401 721 401 763 q 385 633 401 678 q 318 560 359 560 q 286 575 296 560 l 235 235 q 198 91 222 153 q 88 -18 153 -18 q 27 8 57 -18 q -2 94 -2 35 q 43 153 -2 153 q 73 119 71 153 m 291 646 q 336 724 334 650 q 306 708 323 722 q 289 660 289 693 q 291 646 289 652 z "},"T":{"ha":391,"x_min":85,"x_max":709,"o":"m 654 704 q 422 694 541 703 q 261 68 286 146 q 216 -48 237 -10 q 157 -120 195 -87 q 94 -154 119 -153 q 85 -145 85 -153 q 101 -114 85 -138 q 244 281 184 16 l 345 689 q 254 683 343 689 q 127 688 165 677 q 88 722 94 703 q 134 743 85 737 l 178 747 l 236 751 q 361 758 298 754 l 361 758 q 369 793 364 770 q 384 825 373 817 q 429 833 394 833 q 449 814 449 832 q 448 802 449 804 l 437 760 l 671 763 q 705 734 694 763 q 709 718 709 725 q 654 704 708 704 z "},"Þ":{"ha":468,"x_min":-136,"x_max":438,"o":"m 157 -20 q 83 -177 122 -116 q -11 -275 45 -237 q -97 -313 -66 -313 q -136 -298 -129 -313 q -119 -289 -136 -292 l -118 -289 q -15 -218 -64 -277 q 3 -192 -4 -205 q 150 202 85 -62 l 226 522 q 290 775 278 745 q 317 810 302 806 q 349 814 330 814 q 370 803 368 814 q 371 787 371 800 q 361 747 371 774 l 361 746 q 306 526 356 729 q 329 528 313 528 q 429 488 404 528 q 438 452 438 472 q 369 219 438 353 q 229 20 299 85 q 157 -20 186 -18 m 221 202 q 184 66 209 152 q 355 351 305 199 q 376 445 370 399 q 332 467 359 467 q 290 459 304 467 q 221 202 243 275 z "},"U":{"ha":477,"x_min":119,"x_max":591,"o":"m 193 98 q 212 111 201 99 q 441 519 321 236 q 489 634 447 532 q 545 744 531 736 q 564 746 549 746 q 585 739 579 747 q 591 714 591 731 q 581 669 591 697 q 463 311 513 501 q 439 136 439 217 q 442 41 439 56 q 434 14 445 27 q 414 -4 422 1 q 391 -3 406 -9 q 369 18 376 3 q 370 111 361 34 q 393 254 378 187 l 410 327 q 271 71 332 155 q 154 -14 211 -14 q 119 51 119 -13 q 176 353 119 146 q 261 629 234 560 q 293 715 288 698 q 336 753 307 753 q 366 725 366 753 q 351 664 366 705 q 193 98 222 322 z "},"Ú":{"ha":511,"x_min":119,"x_max":591,"o":"m 370 859 q 467 984 401 877 q 484 995 476 994 q 513 964 502 995 q 518 943 517 952 q 420 846 518 908 q 341 804 353 804 q 317 814 328 804 q 310 827 309 821 q 315 835 311 833 q 370 859 345 838 m 193 98 q 212 111 201 99 q 441 519 321 236 q 489 634 447 532 q 545 744 531 736 q 564 746 549 746 q 585 739 579 747 q 591 714 591 731 q 581 669 591 697 q 463 311 513 501 q 439 136 439 217 q 442 41 439 56 q 434 14 445 27 q 414 -4 422 1 q 391 -3 406 -9 q 369 18 376 3 q 370 111 361 34 q 393 254 378 187 l 410 327 q 271 71 332 155 q 154 -14 211 -14 q 119 51 119 -13 q 176 353 119 146 q 261 629 234 560 q 293 715 288 698 q 336 753 307 753 q 366 725 366 753 q 351 664 366 705 q 193 98 222 322 z "},"Û":{"ha":511,"x_min":119,"x_max":591,"o":"m 447 901 q 350 817 402 867 q 330 804 334 804 q 316 828 316 805 q 334 868 316 850 q 388 917 352 885 q 442 966 425 948 q 473 984 460 984 q 493 971 486 984 q 500 952 500 958 q 495 912 500 946 q 487 858 490 879 q 468 824 484 836 q 444 812 453 812 q 436 828 437 813 q 447 901 436 843 m 193 98 q 212 111 201 99 q 441 519 321 236 q 489 634 447 532 q 545 744 531 736 q 564 746 549 746 q 585 739 579 747 q 591 714 591 731 q 581 669 591 697 q 463 311 513 501 q 439 136 439 217 q 442 41 439 56 q 434 14 445 27 q 414 -4 422 1 q 391 -3 406 -9 q 369 18 376 3 q 370 111 361 34 q 393 254 378 187 l 410 327 q 271 71 332 155 q 154 -14 211 -14 q 119 51 119 -13 q 176 353 119 146 q 261 629 234 560 q 293 715 288 698 q 336 753 307 753 q 366 725 366 753 q 351 664 366 705 q 193 98 222 322 z "},"Ü":{"ha":511,"x_min":119,"x_max":591,"o":"m 426 848 q 477 905 456 863 q 493 966 484 917 q 507 1035 502 1016 q 531 1055 511 1055 q 565 1038 550 1056 q 580 1010 580 1021 q 514 888 580 976 q 475 842 492 858 q 425 835 448 814 q 426 848 418 842 m 356 866 q 378 938 368 882 q 393 1012 388 993 q 417 1031 397 1031 q 451 1014 436 1031 q 466 985 466 997 q 400 863 466 957 q 368 825 382 839 q 340 808 350 809 q 323 814 330 807 q 319 830 311 825 q 356 866 342 844 m 193 98 q 212 111 201 99 q 441 519 321 236 q 489 634 447 532 q 545 744 531 736 q 564 746 549 746 q 585 739 579 747 q 591 714 591 731 q 581 669 591 697 q 463 311 513 501 q 439 136 439 217 q 442 41 439 56 q 434 14 445 27 q 414 -4 422 1 q 391 -3 406 -9 q 369 18 376 3 q 370 111 361 34 q 393 254 378 187 l 410 327 q 271 71 332 155 q 154 -14 211 -14 q 119 51 119 -13 q 176 353 119 146 q 261 629 234 560 q 293 715 288 698 q 336 753 307 753 q 366 725 366 753 q 351 664 366 705 q 193 98 222 322 z "},"Ù":{"ha":511,"x_min":119,"x_max":591,"o":"m 318 1010 q 329 1002 324 1010 q 357 943 334 994 q 403 865 380 893 q 460 827 426 836 l 460 827 q 465 821 465 825 q 458 808 465 817 q 440 800 452 800 q 348 863 420 800 q 277 961 277 926 q 283 985 277 972 q 318 1010 297 1010 m 193 98 q 212 111 201 99 q 441 519 321 236 q 489 634 447 532 q 545 744 531 736 q 564 746 549 746 q 585 739 579 747 q 591 714 591 731 q 581 669 591 697 q 463 311 513 501 q 439 136 439 217 q 442 41 439 56 q 434 14 445 27 q 414 -4 422 1 q 391 -3 406 -9 q 369 18 376 3 q 370 111 361 34 q 393 254 378 187 l 410 327 q 271 71 332 155 q 154 -14 211 -14 q 119 51 119 -13 q 176 353 119 146 q 261 629 234 560 q 293 715 288 698 q 336 753 307 753 q 366 725 366 753 q 351 664 366 705 q 193 98 222 322 z "},"V":{"ha":368,"x_min":16,"x_max":599,"o":"m 140 749 q 170 792 140 792 q 215 761 201 792 q 229 696 229 730 q 192 429 229 591 q 150 225 155 267 q 140 157 144 184 l 528 706 q 587 722 545 722 q 599 703 609 721 q 595 692 595 698 q 572 655 595 687 q 136 52 151 75 q 108 16 120 28 l 93 -50 q 90 -60 91 -57 q 67 -75 85 -75 q 16 -28 16 -74 q 38 72 16 -20 q 73 233 59 165 q 176 643 86 302 q 181 690 181 663 q 159 720 180 701 q 140 749 140 735 z "},"W":{"ha":702,"x_min":119,"x_max":818,"o":"m 637 327 q 498 71 558 155 q 380 -14 437 -14 q 345 50 345 -13 q 380 262 345 113 q 186 -7 271 29 q 154 -14 170 -14 q 119 51 119 -13 q 176 353 119 146 q 261 629 234 560 q 293 715 288 698 q 336 753 307 753 q 366 725 366 753 q 351 664 366 705 q 193 98 222 322 q 212 111 201 99 q 441 519 320 236 l 493 644 l 501 665 q 519 715 514 698 q 563 753 534 753 q 593 725 592 753 q 591 705 593 716 q 577 659 589 686 q 564 628 565 631 q 420 98 447 305 q 439 111 428 99 q 668 519 547 236 q 715 634 673 532 q 772 744 758 736 q 791 746 776 746 q 812 739 806 747 q 818 714 818 731 q 807 669 818 697 q 793 636 795 641 q 730 523 791 631 q 637 327 669 416 z "},"X":{"ha":262,"x_min":-80,"x_max":415,"o":"m 415 630 q 411 618 414 629 l 211 263 q 252 10 218 113 q 260 -25 263 -12 q 243 -27 258 -31 q 200 15 228 -24 q 158 103 172 54 q 153 123 158 104 q 147 149 148 142 l 62 -2 q 24 -69 37 -45 q -10 -121 7 -102 q -68 -149 -31 -145 q -77 -141 -70 -149 q -80 -125 -83 -132 q -66 -106 -77 -119 q -42 -71 -52 -90 q -14 -19 -33 -52 l 145 267 q 147 744 147 549 q 174 789 147 771 l 199 804 q 215 805 208 809 q 221 737 223 800 l 210 416 q 210 381 210 399 l 320 581 q 345 625 340 619 q 401 647 359 642 q 405 647 403 647 q 415 630 420 648 z "},"Y":{"ha":378,"x_min":10,"x_max":513,"o":"m 513 787 q 512 784 512 785 q 510 772 512 780 l 234 113 q 149 -52 184 -1 q 76 -130 113 -102 q 24 -157 39 -157 q 10 -150 9 -156 q 20 -132 11 -143 q 159 104 89 -49 l 249 309 q 185 685 200 614 q 172 773 170 755 q 200 798 174 789 q 222 801 210 801 q 237 788 234 800 q 267 619 244 755 q 299 430 289 483 l 418 729 q 431 763 423 740 q 449 793 438 786 q 487 801 460 801 q 513 787 513 802 z "},"Ý":{"ha":313,"x_min":-55,"x_max":448,"o":"m 276 855 q 373 981 307 873 q 389 991 382 991 q 419 961 408 991 q 424 940 423 949 q 326 842 424 905 q 247 800 259 800 q 222 810 234 800 q 216 824 215 818 q 220 831 216 830 q 276 855 250 834 m 448 787 q 447 784 447 785 q 445 772 447 780 l 169 113 q 84 -52 119 -1 q 11 -130 48 -102 q -41 -157 -26 -157 q -55 -150 -56 -156 q -45 -132 -54 -143 q 94 104 24 -49 l 184 309 q 120 685 135 614 q 106 773 104 755 q 135 798 109 789 q 157 801 145 801 q 172 788 169 800 q 201 619 179 755 q 234 430 224 483 l 353 729 q 366 763 358 740 q 384 793 373 786 q 421 801 395 801 q 448 787 448 802 z "},"Z":{"ha":543,"x_min":-26,"x_max":670,"o":"m 560 703 l 270 692 q 231 694 252 692 q 152 734 152 706 q 172 746 152 745 l 174 746 l 309 757 q 500 763 416 763 l 633 763 q 667 734 656 763 q 670 716 671 725 q 642 705 669 708 q 621 680 634 694 l 90 71 q 230 82 130 73 q 353 92 330 91 q 459 63 444 94 q 463 53 463 58 q 455 43 463 45 q 441 41 447 41 l 328 25 q 152 13 223 15 q 39 8 81 10 q 0 -8 24 -8 q -26 9 -24 -8 q -24 38 -28 26 q 12 84 -19 50 l 560 703 z "},"a":{"ha":479,"x_min":-1,"x_max":606,"o":"m 357 443 q 168 300 249 425 q 85 62 90 180 q 357 443 241 267 m 326 500 l 366 495 q 386 506 376 495 q 413 517 397 517 q 440 508 430 517 q 450 493 450 499 q 443 471 450 486 q 435 452 436 456 q 345 91 345 169 q 357 63 345 64 q 486 172 398 63 q 563 278 545 244 q 590 314 580 312 q 593 315 592 314 q 606 300 606 313 q 550 191 606 276 q 342 7 430 7 q 279 96 279 7 q 296 200 279 138 q 317 279 313 263 q 212 131 301 258 q 85 -20 123 3 q 64 -27 73 -26 q 7 3 25 -27 q -1 46 -1 18 q 41 176 -1 75 q 195 429 109 340 q 326 500 262 498 z "},"á":{"ha":479,"x_min":-1,"x_max":606,"o":"m 366 646 q 463 772 396 665 q 479 783 471 782 q 509 752 497 783 q 513 731 513 740 q 416 633 513 696 q 336 591 349 591 q 312 602 323 591 q 305 615 304 609 q 310 623 306 621 q 366 646 340 625 m 357 443 q 168 300 249 425 q 85 62 90 180 q 357 443 241 267 m 326 500 l 366 495 q 386 506 376 495 q 413 517 397 517 q 440 508 430 517 q 450 493 450 499 q 443 471 450 486 q 435 452 436 456 q 345 91 345 169 q 357 63 345 64 q 486 172 398 63 q 563 278 545 244 q 590 314 580 312 q 593 315 592 314 q 606 300 606 313 q 550 191 606 276 q 342 7 430 7 q 279 96 279 7 q 296 200 279 138 q 317 279 313 263 q 212 131 301 258 q 85 -20 123 3 q 64 -27 73 -26 q 7 3 25 -27 q -1 46 -1 18 q 41 176 -1 75 q 195 429 109 340 q 326 500 262 498 z "},"â":{"ha":479,"x_min":-1,"x_max":606,"o":"m 438 693 q 341 609 393 659 q 321 595 326 595 q 307 620 307 597 q 325 660 307 642 q 379 708 343 677 q 433 758 416 740 q 464 776 451 776 q 484 763 477 776 q 491 744 491 750 q 486 704 491 738 q 478 649 481 671 q 459 616 475 628 q 435 604 444 604 q 428 620 428 605 q 438 693 427 635 m 357 443 q 168 300 249 425 q 85 62 90 180 q 357 443 241 267 m 326 500 l 366 495 q 386 506 376 495 q 413 517 397 517 q 440 508 430 517 q 450 493 450 499 q 443 471 450 486 q 435 452 436 456 q 345 91 345 169 q 357 63 345 64 q 486 172 398 63 q 563 278 545 244 q 590 314 580 312 q 593 315 592 314 q 606 300 606 313 q 550 191 606 276 q 342 7 430 7 q 279 96 279 7 q 296 200 279 138 q 317 279 313 263 q 212 131 301 258 q 85 -20 123 3 q 64 -27 73 -26 q 7 3 25 -27 q -1 46 -1 18 q 41 176 -1 75 q 195 429 109 340 q 326 500 262 498 z "},"´":{"ha":300,"x_min":45,"x_max":254,"o":"m 106 646 q 203 772 136 665 q 219 783 212 782 q 249 752 237 783 q 254 731 253 740 q 156 633 254 696 q 76 591 89 591 q 52 602 64 591 q 45 615 45 609 q 50 623 46 621 q 106 646 80 625 z "},"ä":{"ha":479,"x_min":-1,"x_max":606,"o":"m 371 610 q 422 667 401 625 q 438 728 429 679 q 452 797 447 778 q 476 817 456 817 q 510 800 495 818 q 525 772 525 783 q 459 650 525 738 q 420 604 437 620 q 370 597 393 576 q 371 610 363 604 m 301 628 q 323 700 313 644 q 338 774 333 755 q 362 793 342 793 q 396 776 381 793 q 411 747 411 759 q 345 625 411 719 q 313 587 328 601 q 285 570 295 571 q 268 576 275 569 q 264 592 256 587 q 301 628 287 606 m 357 443 q 168 300 249 425 q 85 62 90 180 q 357 443 241 267 m 326 500 l 366 495 q 386 506 376 495 q 413 517 397 517 q 440 508 430 517 q 450 493 450 499 q 443 471 450 486 q 435 452 436 456 q 345 91 345 169 q 357 63 345 64 q 486 172 398 63 q 563 278 545 244 q 590 314 580 312 q 593 315 592 314 q 606 300 606 313 q 550 191 606 276 q 342 7 430 7 q 279 96 279 7 q 296 200 279 138 q 317 279 313 263 q 212 131 301 258 q 85 -20 123 3 q 64 -27 73 -26 q 7 3 25 -27 q -1 46 -1 18 q 41 176 -1 75 q 195 429 109 340 q 326 500 262 498 z "},"æ":{"ha":617,"x_min":-4,"x_max":713,"o":"m 355 443 q 134 246 220 418 q 83 62 85 146 q 355 443 237 267 m 405 332 q 463 391 418 334 q 508 479 508 447 q 505 490 508 484 q 448 412 491 476 q 405 332 405 349 m 323 500 l 363 495 q 383 506 372 495 q 408 517 393 517 q 439 507 423 517 q 462 532 441 508 q 506 557 484 557 q 547 549 528 557 q 591 490 591 531 q 587 471 591 484 q 498 344 559 416 q 372 229 436 272 q 351 106 351 151 q 353 50 351 62 q 398 22 359 22 q 489 58 437 22 q 599 154 541 94 q 665 221 657 214 q 684 241 673 229 q 703 253 694 253 q 713 244 711 252 q 702 215 713 235 q 600 84 669 153 q 408 -26 492 -26 q 341 -3 369 -26 q 289 145 289 39 q 316 284 289 203 q 254 195 312 279 q 175 85 195 111 l 142 43 q 119 13 127 22 q 66 -27 87 -27 q 31 -20 45 -27 q -4 37 -4 -4 q 10 100 -4 56 q 118 332 49 222 q 323 500 222 497 z "},"à":{"ha":479,"x_min":-1,"x_max":606,"o":"m 324 767 q 335 758 330 766 q 363 700 340 750 q 409 621 387 650 q 466 584 432 593 l 467 583 q 471 577 471 581 q 464 565 471 573 q 446 557 458 557 q 354 620 426 557 q 283 718 283 682 q 290 741 283 729 q 324 767 303 767 m 357 443 q 168 300 249 425 q 85 62 90 180 q 357 443 241 267 m 326 500 l 366 495 q 386 506 376 495 q 413 517 397 517 q 440 508 430 517 q 450 493 450 499 q 443 471 450 486 q 435 452 436 456 q 345 91 345 169 q 357 63 345 64 q 486 172 398 63 q 563 278 545 244 q 590 314 580 312 q 593 315 592 314 q 606 300 606 313 q 550 191 606 276 q 342 7 430 7 q 279 96 279 7 q 296 200 279 138 q 317 279 313 263 q 212 131 301 258 q 85 -20 123 3 q 64 -27 73 -26 q 7 3 25 -27 q -1 46 -1 18 q 41 176 -1 75 q 195 429 109 340 q 326 500 262 498 z "},"&":{"ha":674,"x_min":45,"x_max":644,"o":"m 111 128 q 217 40 111 40 q 373 100 290 40 l 404 123 q 474 169 458 164 q 499 173 491 174 q 508 156 508 173 q 427 56 508 107 q 204 -16 313 -16 q 77 39 123 -16 q 45 132 45 78 q 205 446 45 294 q 357 570 260 498 q 355 595 355 587 q 398 731 355 670 q 502 792 442 792 q 572 771 561 792 q 583 720 583 751 q 517 600 583 659 q 473 562 504 587 q 429 524 442 537 l 445 466 q 517 246 490 299 q 560 176 544 193 q 606 148 576 159 q 640 127 636 137 q 644 111 644 117 q 623 80 644 87 q 612 78 618 78 q 541 136 583 78 q 538 139 539 138 q 372 492 425 292 q 218 371 291 454 q 111 128 111 249 m 421 588 q 474 647 429 598 q 524 742 524 701 q 522 761 524 743 q 448 678 475 730 q 421 588 421 626 z "},"å":{"ha":479,"x_min":-1,"x_max":606,"o":"m 401 551 q 307 643 307 551 q 313 668 307 655 q 414 715 336 715 q 450 708 435 715 q 492 634 492 690 q 477 585 492 607 q 401 551 451 551 m 446 631 q 401 675 446 675 q 360 666 379 675 q 342 637 342 656 q 394 585 342 585 q 414 587 404 585 q 446 631 446 597 m 357 443 q 168 300 249 425 q 85 62 90 180 q 357 443 241 267 m 326 500 l 366 495 q 386 506 376 495 q 413 517 397 517 q 440 508 430 517 q 450 493 450 499 q 443 471 450 486 q 435 452 436 456 q 345 91 345 169 q 357 63 345 64 q 486 172 398 63 q 563 278 545 244 q 590 314 580 312 q 593 315 592 314 q 606 300 606 313 q 550 191 606 276 q 342 7 430 7 q 279 96 279 7 q 296 200 279 138 q 317 279 313 263 q 212 131 301 258 q 85 -20 123 3 q 64 -27 73 -26 q 7 3 25 -27 q -1 46 -1 18 q 41 176 -1 75 q 195 429 109 340 q 326 500 262 498 z "},"^":{"ha":485,"x_min":52,"x_max":416,"o":"m 288 739 q 328 734 304 755 q 334 724 334 730 q 387 548 359 635 q 416 443 416 462 q 395 423 416 423 q 368 438 374 423 q 365 447 366 441 q 344 511 363 453 q 300 676 317 592 q 234 589 274 645 q 177 515 193 534 l 165 503 q 90 429 104 434 q 70 429 86 429 q 52 443 54 430 q 57 450 53 446 q 235 677 189 624 l 286 736 l 288 738 l 288 739 z "},"~":{"ha":644,"x_min":85,"x_max":633,"o":"m 85 231 q 214 328 85 326 q 335 289 266 328 q 425 243 404 251 q 465 235 445 235 q 536 269 506 235 q 552 289 541 274 q 578 317 564 303 q 612 333 592 332 q 632 312 632 332 q 621 277 633 292 q 609 262 609 262 q 468 189 553 189 q 354 225 429 189 q 255 269 279 262 q 214 275 230 275 q 139 232 165 274 q 130 208 137 229 q 105 193 124 193 q 85 231 85 193 z "},"*":{"ha":534,"x_min":176,"x_max":503,"o":"m 177 626 q 195 653 177 647 q 211 644 201 652 q 311 555 255 600 q 307 690 307 625 q 330 708 307 703 q 338 709 335 709 q 349 667 349 708 q 357 551 350 625 l 371 562 q 464 627 454 623 q 487 631 474 631 q 503 620 500 631 q 498 609 505 615 l 376 503 l 394 486 q 469 407 460 420 q 477 378 477 393 q 468 362 477 364 q 459 367 463 363 l 366 452 l 366 446 q 361 328 366 345 q 336 305 356 305 q 328 316 328 307 q 317 453 321 383 l 231 385 q 201 367 213 367 q 182 376 189 367 q 176 390 176 385 q 211 423 176 395 q 304 505 245 450 q 180 617 203 595 q 177 626 177 622 z "},"@":{"ha":703,"x_min":52,"x_max":654,"o":"m 463 405 q 321 292 380 391 q 271 147 278 219 q 271 139 271 142 q 463 405 378 280 m 468 441 q 482 449 475 441 q 506 457 490 457 q 526 441 523 457 q 521 425 526 436 q 515 409 516 414 q 483 303 513 404 q 453 171 453 203 q 461 139 454 140 q 543 194 496 138 q 604 353 604 264 q 519 478 604 442 q 427 495 478 495 q 146 393 230 495 q 102 278 102 340 q 177 74 102 149 q 385 0 252 0 q 506 22 469 0 q 554 48 543 45 q 581 50 565 51 q 597 37 596 50 q 460 -41 597 -27 q 396 -45 429 -45 q 102 96 189 -45 q 52 292 52 179 q 109 434 52 369 q 429 552 208 548 q 444 552 437 552 q 624 474 568 552 q 654 387 654 433 q 597 211 654 291 q 452 101 518 101 q 408 141 416 101 q 427 264 401 172 q 433 291 431 281 q 355 182 422 277 q 255 76 281 76 q 216 100 229 76 q 211 121 210 110 q 246 233 211 152 q 373 418 304 365 q 439 445 408 444 l 468 441 z "},"ã":{"ha":479,"x_min":-1,"x_max":606,"o":"m 376 667 q 412 743 398 696 q 453 800 429 800 q 492 780 476 800 q 507 749 507 761 q 500 720 507 737 q 393 612 471 650 q 283 588 340 588 q 225 608 226 588 q 251 616 227 616 q 376 667 337 616 m 357 443 q 168 300 249 425 q 85 62 90 180 q 357 443 241 267 m 326 500 l 366 495 q 386 506 376 495 q 413 517 397 517 q 440 508 430 517 q 450 493 450 499 q 443 471 450 486 q 435 452 436 456 q 345 91 345 169 q 357 63 345 64 q 486 172 398 63 q 563 278 545 244 q 590 314 580 312 q 593 315 592 314 q 606 300 606 313 q 550 191 606 276 q 342 7 430 7 q 279 96 279 7 q 296 200 279 138 q 317 279 313 263 q 212 131 301 258 q 85 -20 123 3 q 64 -27 73 -26 q 7 3 25 -27 q -1 46 -1 18 q 41 176 -1 75 q 195 429 109 340 q 326 500 262 498 z "},"b":{"ha":405,"x_min":18,"x_max":443,"o":"m 191 109 q 206 85 192 86 q 231 99 216 85 q 332 272 277 143 q 387 441 387 401 q 376 454 387 452 q 334 444 355 454 q 222 267 268 407 q 191 109 191 172 m 170 -41 q 125 66 125 -41 q 141 197 125 112 q 192 349 157 282 q 129 252 171 320 q 71 159 87 184 l 71 159 q 35 131 52 130 q 18 146 19 131 q 37 190 18 159 q 225 550 129 334 q 340 850 322 767 q 376 870 345 869 q 397 867 386 870 q 425 841 425 859 q 420 827 425 835 q 280 479 304 627 q 374 508 328 507 q 404 503 391 508 q 443 443 443 488 q 409 317 443 416 q 299 89 376 218 q 170 -41 222 -41 z "},"\\":{"ha":399,"x_min":106,"x_max":328,"o":"m 144 798 q 177 738 167 798 q 249 380 218 518 l 282 232 q 327 -15 328 28 q 302 -58 327 -58 q 279 -36 285 -57 q 132 619 176 344 q 107 770 132 619 q 106 778 106 774 q 144 798 115 795 z "},"|":{"ha":309,"x_min":55,"x_max":243,"o":"m 243 648 q 229 542 247 632 q 191 294 210 451 q 145 4 172 137 q 106 -161 119 -129 q 74 -193 94 -193 q 55 -173 55 -193 q 96 119 55 -153 q 187 655 138 390 q 215 671 191 671 q 243 648 240 671 z "},"{":{"ha":353,"x_min":85,"x_max":371,"o":"m 248 530 l 242 637 q 281 717 242 692 q 316 727 298 727 q 366 691 353 727 q 371 651 371 676 q 355 626 370 627 q 338 637 346 626 q 322 649 330 648 q 284 617 296 649 q 280 595 280 606 l 295 510 q 231 297 294 403 q 246 213 246 261 q 195 67 246 165 q 143 -75 143 -31 q 151 -124 143 -119 q 165 -128 159 -128 l 202 -118 q 232 -148 232 -118 q 201 -191 232 -178 q 167 -197 184 -197 q 85 -83 85 -197 q 128 75 85 -23 q 176 196 170 174 q 182 231 182 219 q 181 246 182 243 q 171 240 180 241 q 147 260 161 240 q 132 296 132 281 q 175 369 132 311 q 248 530 248 466 z "},"}":{"ha":469,"x_min":58,"x_max":342,"o":"m 180 1 l 186 -105 q 148 -184 186 -160 q 113 -195 131 -195 q 63 -159 76 -195 q 58 -120 58 -144 q 74 -94 58 -95 q 91 -105 83 -94 q 106 -117 99 -117 q 144 -85 133 -117 q 149 -63 149 -74 l 134 22 q 197 235 134 129 q 182 318 182 271 q 222 442 182 365 q 274 549 262 519 q 286 615 286 579 q 277 655 286 651 q 264 660 269 660 l 227 650 q 197 676 202 650 q 196 686 197 681 q 228 723 196 710 q 261 729 243 729 q 342 614 342 729 q 300 456 342 555 q 252 335 258 358 q 248 286 243 297 q 257 291 249 291 q 281 271 266 292 q 297 236 297 251 q 254 163 297 220 q 180 1 181 68 z "},"[":{"ha":467,"x_min":118,"x_max":550,"o":"m 479 694 q 387 693 479 694 q 288 332 361 610 q 183 -47 214 55 q 290 -43 210 -45 q 394 -36 370 -41 q 447 -42 446 -24 q 372 -98 447 -81 q 161 -109 326 -109 q 118 -75 118 -108 q 145 22 118 -58 q 233 347 172 102 l 313 662 q 322 706 317 677 q 335 740 328 734 q 353 745 342 745 q 387 745 363 745 q 466 745 410 745 q 536 738 522 745 q 550 725 549 730 q 527 703 550 711 q 479 694 503 694 z "},"]":{"ha":452,"x_min":39,"x_max":471,"o":"m 110 -61 q 203 -60 110 -61 q 302 305 229 28 q 406 682 376 582 q 304 677 395 681 q 193 669 214 674 q 142 676 144 657 q 217 732 142 715 q 427 742 259 742 q 471 709 470 740 q 444 610 471 689 q 357 286 418 531 l 277 -28 q 267 -71 273 -43 q 253 -106 261 -100 q 237 -111 247 -110 q 68 -110 96 -111 q 39 -91 40 -109 q 62 -69 39 -77 q 110 -61 85 -61 z "},"¦":{"ha":302,"x_min":45,"x_max":233,"o":"m 199 671 q 233 642 233 671 q 220 559 233 628 q 190 359 208 490 q 179 336 189 351 q 148 322 170 321 q 123 346 126 323 q 177 655 123 378 q 199 671 180 670 m 127 162 q 149 166 137 167 q 160 148 160 165 q 156 108 161 131 l 131 -19 q 99 -155 111 -123 q 64 -193 85 -193 q 45 -173 45 -193 q 52 -111 45 -153 l 85 107 q 127 162 92 146 z "},"•":{"ha":509,"x_min":121,"x_max":362,"o":"m 121 370 q 256 452 121 451 q 331 423 300 452 q 362 348 362 394 q 340 274 362 302 q 249 231 307 231 q 156 269 191 231 q 121 370 121 306 z "},"c":{"ha":402,"x_min":53,"x_max":485,"o":"m 258 534 q 345 477 345 534 q 298 354 342 448 q 233 260 254 260 q 220 271 223 262 q 227 284 220 277 q 243 311 234 292 q 273 412 273 371 q 262 469 273 452 q 219 431 243 468 q 143 252 175 363 q 111 77 111 142 q 111 57 111 64 q 150 11 114 11 q 444 199 258 11 q 485 216 481 237 q 471 182 485 204 q 362 59 436 123 q 175 -37 253 -37 q 92 2 123 -36 q 53 77 61 39 q 77 262 33 169 q 90 292 78 265 q 222 519 162 451 q 258 534 236 533 z "},"ç":{"ha":402,"x_min":53,"x_max":485,"o":"m 258 534 q 345 477 345 534 q 298 354 342 448 q 233 260 254 260 q 220 271 223 262 q 227 284 220 277 q 243 311 234 292 q 273 412 273 371 q 262 469 273 452 q 219 431 243 468 q 143 252 175 362 q 111 77 111 142 q 111 57 111 68 q 150 11 114 11 q 446 202 256 12 q 485 216 481 239 q 471 182 484 203 q 362 59 437 124 q 175 -37 252 -37 q 163 -36 170 -37 q 159 -47 159 -41 q 184 -59 159 -53 l 201 -63 q 251 -121 251 -78 q 234 -158 251 -136 q 195 -180 218 -180 q 172 -176 173 -180 q 190 -157 172 -172 q 207 -132 208 -142 q 201 -113 207 -123 q 171 -96 196 -103 q 141 -87 146 -89 q 110 -58 110 -77 q 121 -22 110 -39 q 83 15 103 -11 q 53 77 61 39 q 77 262 32 174 q 90 292 78 265 q 222 519 165 455 q 258 534 236 533 z "},"¸":{"ha":501,"x_min":159,"x_max":300,"o":"m 279 -26 l 248 -20 q 234 -23 242 -20 q 208 -47 208 -32 q 250 -63 209 -54 q 300 -121 300 -78 q 283 -158 300 -135 q 244 -180 267 -180 q 220 -176 222 -180 q 239 -157 221 -172 q 256 -132 256 -142 q 250 -113 256 -123 q 219 -96 243 -102 q 190 -87 195 -89 q 159 -56 159 -77 q 169 -24 159 -40 q 233 11 191 11 q 251 8 241 11 q 282 -24 282 -1 q 279 -26 281 -25 z "},"¢":{"ha":401,"x_min":6,"x_max":482,"o":"m 120 -22 q 40 145 47 21 q 16 147 26 145 q 6 163 5 149 q 31 201 7 176 q 69 247 61 228 l 89 292 q 220 519 172 470 q 298 528 245 544 l 321 594 q 336 609 328 609 q 371 587 371 609 q 361 544 371 571 l 342 490 q 343 479 343 483 q 291 342 343 448 l 187 17 q 444 202 288 46 q 473 223 465 224 q 482 214 481 223 q 469 182 483 204 q 361 59 434 123 q 173 -37 252 -37 q 171 -36 172 -37 q 168 -36 169 -36 q 148 -79 159 -59 q 121 -99 137 -98 q 117 -98 120 -99 q 105 -85 105 -95 q 106 -68 105 -75 l 120 -22 m 109 77 l 109 71 q 132 14 109 22 q 269 446 218 294 q 260 469 267 457 q 217 431 241 468 q 141 252 173 363 q 109 77 109 142 z "},"ˆ":{"ha":382,"x_min":90,"x_max":273,"o":"m 220 693 q 123 609 176 659 q 103 595 108 595 q 90 620 90 597 q 107 660 90 642 q 162 708 125 677 q 216 758 198 740 q 247 776 233 776 q 267 763 260 776 q 273 744 273 750 q 269 704 273 738 q 260 649 264 671 q 242 616 257 628 q 217 604 227 604 q 210 620 210 605 q 220 693 210 635 z "},":":{"ha":417,"x_min":181,"x_max":328,"o":"m 203 132 q 213 112 207 120 q 238 104 218 104 q 264 102 258 104 q 295 58 295 94 q 290 35 295 45 q 249 9 277 9 q 201 24 221 9 q 181 69 181 39 q 182 83 181 79 q 203 132 182 87 m 235 469 q 245 449 239 456 q 271 441 251 441 q 297 439 290 441 q 328 394 328 431 q 323 372 328 382 q 281 345 309 345 q 234 360 254 345 q 214 406 214 375 q 214 420 214 416 q 235 469 215 424 z "},",":{"ha":273,"x_min":91,"x_max":199,"o":"m 149 132 q 196 90 184 132 q 199 61 199 77 q 164 -42 199 10 q 98 -94 129 -94 q 91 -89 92 -94 q 100 -74 92 -85 q 117 58 186 -3 q 95 85 95 77 q 123 126 95 111 q 149 132 136 132 z "},"©":{"ha":804,"x_min":64,"x_max":740,"o":"m 64 421 q 124 568 65 499 q 456 682 228 682 q 667 601 595 682 q 740 389 740 519 l 740 380 q 639 163 736 241 q 408 85 542 85 q 150 179 237 85 q 64 421 64 273 m 167 533 q 114 398 114 477 q 150 254 114 320 q 397 129 219 129 q 581 188 505 129 q 671 382 671 258 q 644 509 671 452 q 438 624 587 624 q 167 533 254 624 m 389 579 q 465 545 461 579 q 431 457 464 526 q 380 387 399 389 q 371 393 372 388 q 374 400 371 396 q 406 503 406 445 q 391 534 406 525 q 339 469 369 531 q 297 352 310 408 q 284 285 284 296 l 284 273 q 318 205 284 207 q 413 237 358 205 q 562 356 469 269 q 585 376 576 375 q 595 369 593 376 q 589 354 595 364 q 511 262 568 314 q 338 174 415 174 q 267 202 300 174 q 226 294 233 231 l 210 294 q 196 306 203 295 q 217 335 197 316 q 244 367 238 353 q 260 401 250 381 q 360 568 321 529 q 389 579 369 578 z "},"¤":{"ha":500,"x_min":1,"x_max":496,"o":"m 111 113 q 65 -33 85 68 q 64 -36 65 -33 q 50 -56 60 -56 q 21 -43 40 -56 q 2 -8 1 -31 q 37 71 2 15 q 116 170 83 146 q 155 328 123 212 q 243 571 186 444 q 181 647 230 582 q 132 747 132 713 q 146 779 132 762 q 172 795 161 795 q 187 793 182 795 q 204 732 192 791 q 233 643 216 673 q 259 604 250 613 q 283 643 274 633 q 307 653 292 653 q 325 652 321 653 q 339 626 338 650 q 362 600 339 601 l 363 597 q 432 770 404 633 q 433 774 432 771 q 447 793 437 793 q 476 781 457 793 q 495 746 496 768 q 460 667 495 723 q 395 581 425 611 l 382 568 l 383 568 q 380 566 382 567 q 374 563 378 564 q 353 485 361 551 q 341 402 344 418 q 264 163 317 235 l 262 159 q 298 117 275 146 q 366 -7 366 27 q 351 -39 366 -22 q 326 -56 336 -56 q 311 -54 315 -56 q 295 3 306 -52 q 267 90 283 58 q 242 131 251 121 q 155 64 193 64 q 111 113 117 64 m 324 568 q 242 398 296 568 q 187 203 188 228 q 191 178 186 178 q 277 301 215 178 q 340 511 340 424 q 324 568 336 562 z "},"d":{"ha":430,"x_min":-39,"x_max":761,"o":"m 666 888 q 409 291 540 681 q 381 212 409 291 q 308 -51 309 12 q 330 -81 309 -62 q 349 -111 349 -96 q 320 -153 348 -149 q 290 -141 303 -153 q 262 -60 262 -116 q 307 170 262 45 q 359 326 351 295 l 290 234 q 119 37 196 111 q 84 9 113 33 q 15 -15 56 -15 q -6 -11 3 -15 q -39 50 -39 3 q 5 156 -39 75 q 159 368 50 237 q 308 514 268 498 q 392 530 347 530 q 429 566 410 543 q 476 646 449 589 l 511 720 q 552 807 523 743 q 598 905 581 871 q 714 1045 668 1045 q 761 1000 760 1044 q 733 928 761 967 q 666 888 705 888 m 332 420 q 339 447 339 440 q 336 456 339 454 q 294 420 332 456 q 53 121 146 281 q 31 73 31 83 q 36 61 31 62 q 55 70 42 61 q 203 218 103 102 q 332 420 302 334 z "},"°":{"ha":420,"x_min":185,"x_max":355,"o":"m 216 519 q 185 582 185 542 q 198 654 185 621 q 281 718 224 718 q 314 711 298 718 q 355 652 355 694 q 336 570 355 609 q 254 506 307 506 q 216 519 233 506 m 275 680 q 234 646 252 679 q 216 574 216 613 q 239 539 218 544 q 281 578 262 540 q 300 648 300 617 q 275 680 300 678 z "},"¨":{"ha":904,"x_min":235,"x_max":496,"o":"m 342 610 q 393 667 372 625 q 409 728 400 679 q 422 797 418 778 q 447 817 427 817 q 481 800 466 818 q 496 772 496 783 q 430 650 496 738 q 391 604 408 620 q 341 597 363 576 q 342 610 334 604 m 272 628 q 294 700 284 644 q 309 774 304 755 q 333 793 313 793 q 367 776 352 793 q 382 747 382 759 q 316 625 382 719 q 283 587 298 601 q 256 570 266 571 q 239 576 246 569 q 235 592 227 587 q 272 628 258 606 z "},"÷":{"ha":646,"x_min":84,"x_max":545,"o":"m 343 528 q 379 490 379 528 q 375 473 379 481 q 345 452 365 452 q 290 500 290 452 q 297 526 290 512 l 308 549 q 315 534 311 540 q 343 528 319 528 m 545 344 q 495 331 545 332 q 360 321 446 330 q 202 311 274 311 q 111 316 130 311 q 84 346 84 323 q 94 357 84 355 l 96 357 q 517 381 382 381 l 525 381 q 544 355 538 381 q 545 344 545 349 m 289 213 q 325 176 325 213 q 321 159 325 167 q 290 138 310 138 q 258 144 269 138 q 236 178 236 158 q 243 211 236 197 l 254 235 q 260 219 256 225 q 289 213 264 213 z "},"$":{"ha":487,"x_min":12,"x_max":533,"o":"m 106 -80 q 96 -58 96 -75 q 110 7 96 -42 q 77 28 93 16 q 12 146 12 79 q 31 174 13 172 q 48 170 39 174 q 65 148 58 165 l 75 125 q 127 64 95 83 l 217 376 q 216 380 216 378 q 174 568 174 498 q 199 690 174 637 q 343 798 243 779 l 369 877 q 384 890 373 888 q 401 883 389 890 q 414 856 414 877 q 400 801 414 835 q 460 789 433 800 q 533 682 533 761 q 528 638 533 658 q 490 593 517 593 q 480 595 485 593 q 459 628 459 603 q 467 660 459 636 q 475 694 475 683 q 467 719 475 706 q 386 757 444 751 q 278 374 346 627 l 297 300 q 330 126 330 175 q 307 40 330 78 q 199 -16 271 -16 q 156 -10 177 -16 q 111 -81 130 -81 q 106 -80 109 -81 m 251 276 q 178 53 236 227 q 238 87 208 56 q 267 168 267 118 q 251 276 267 218 m 254 503 l 327 746 q 287 707 304 733 q 251 563 251 650 q 254 503 251 537 z "},"ı":{"ha":318,"x_min":50,"x_max":407,"o":"m 405 199 q 305 56 380 129 q 157 -31 217 -31 q 56 60 77 -31 q 50 121 50 88 q 91 364 50 226 q 186 539 142 539 q 219 529 209 539 q 230 513 230 518 q 186 407 230 492 q 131 283 142 321 q 116 183 121 245 q 111 104 111 122 q 125 30 111 45 q 161 14 140 15 q 303 118 220 14 q 366 212 343 169 q 387 228 376 228 q 407 210 405 225 q 405 199 407 208 z "},"e":{"ha":371,"x_min":54,"x_max":477,"o":"m 170 332 q 228 391 183 334 q 273 479 273 447 q 269 490 273 484 q 213 412 256 476 q 170 332 170 349 m 439 231 q 477 244 473 268 q 467 215 477 235 q 365 84 433 153 q 173 -26 256 -26 q 106 -3 134 -26 q 54 145 54 39 q 91 315 54 205 q 204 513 127 425 q 275 557 238 557 q 311 549 292 557 q 356 490 356 531 q 352 471 356 484 q 262 344 324 416 q 137 229 201 272 q 115 106 115 151 q 117 50 115 62 q 163 22 123 22 q 254 58 202 22 q 363 154 305 94 q 430 221 422 214 q 439 231 437 229 z "},"é":{"ha":330,"x_min":54,"x_max":477,"o":"m 262 646 q 359 772 292 665 q 375 783 368 782 q 405 752 393 783 q 410 731 409 740 q 312 633 410 696 q 232 591 245 591 q 208 602 220 591 q 201 615 201 609 q 206 623 202 621 q 262 646 236 625 m 170 332 q 228 391 183 334 q 273 479 273 447 q 269 490 273 484 q 213 412 256 476 q 170 332 170 349 m 439 231 q 477 244 473 268 q 467 215 477 235 q 365 84 433 153 q 173 -26 256 -26 q 106 -3 134 -26 q 54 145 54 39 q 91 315 54 205 q 204 513 127 425 q 275 557 238 557 q 311 549 292 557 q 356 490 356 531 q 352 471 356 484 q 262 344 324 416 q 137 229 201 272 q 115 106 115 151 q 117 50 115 62 q 163 22 123 22 q 254 58 202 22 q 363 154 305 94 q 430 221 422 214 q 439 231 437 229 z "},"ê":{"ha":330,"x_min":54,"x_max":477,"o":"m 345 693 q 248 609 300 659 q 228 595 233 595 q 214 620 214 597 q 232 660 214 642 q 287 708 250 677 q 340 758 323 740 q 371 776 358 776 q 391 763 385 776 q 398 744 398 750 q 393 704 398 738 q 385 649 389 671 q 367 616 382 628 q 342 604 351 604 q 335 620 335 605 q 345 693 334 635 m 170 332 q 228 391 183 334 q 273 479 273 447 q 269 490 273 484 q 213 412 256 476 q 170 332 170 349 m 439 231 q 477 244 473 268 q 467 215 477 235 q 365 84 433 153 q 173 -26 256 -26 q 106 -3 134 -26 q 54 145 54 39 q 91 315 54 205 q 204 513 127 425 q 275 557 238 557 q 311 549 292 557 q 356 490 356 531 q 352 471 356 484 q 262 344 324 416 q 137 229 201 272 q 115 106 115 151 q 117 50 115 62 q 163 22 123 22 q 254 58 202 22 q 363 154 305 94 q 430 221 422 214 q 439 231 437 229 z "},"ë":{"ha":330,"x_min":54,"x_max":477,"o":"m 300 610 q 351 667 330 625 q 367 728 358 679 q 380 797 376 778 q 405 817 385 817 q 439 800 424 818 q 454 772 454 783 q 388 650 454 738 q 349 604 366 620 q 299 597 321 576 q 300 610 292 604 m 230 628 q 252 700 242 644 q 267 774 262 755 q 291 793 271 793 q 325 776 310 793 q 340 747 340 759 q 274 625 340 719 q 241 587 256 601 q 214 570 224 571 q 197 576 204 569 q 193 592 184 587 q 230 628 216 606 m 170 332 q 228 391 183 334 q 273 479 273 447 q 269 490 273 484 q 213 412 256 476 q 170 332 170 349 m 439 231 q 477 244 473 268 q 467 215 477 235 q 365 84 433 153 q 173 -26 256 -26 q 106 -3 134 -26 q 54 145 54 39 q 91 315 54 205 q 204 513 127 425 q 275 557 238 557 q 311 549 292 557 q 356 490 356 531 q 352 471 356 484 q 262 344 324 416 q 137 229 201 272 q 115 106 115 151 q 117 50 115 62 q 163 22 123 22 q 254 58 202 22 q 363 154 305 94 q 430 221 422 214 q 439 231 437 229 z "},"è":{"ha":330,"x_min":54,"x_max":477,"o":"m 242 767 q 253 758 248 766 q 281 700 258 750 q 327 621 304 650 q 384 584 350 593 l 385 583 q 389 577 389 581 q 382 565 389 573 q 364 557 376 557 q 272 620 344 557 q 201 718 201 682 q 208 741 201 729 q 242 767 221 767 m 170 332 q 228 391 183 334 q 273 479 273 447 q 269 490 273 484 q 213 412 256 476 q 170 332 170 349 m 439 231 q 477 244 473 268 q 467 215 477 235 q 365 84 433 153 q 173 -26 256 -26 q 106 -3 134 -26 q 54 145 54 39 q 91 315 54 205 q 204 513 127 425 q 275 557 238 557 q 311 549 292 557 q 356 490 356 531 q 352 471 356 484 q 262 344 324 416 q 137 229 201 272 q 115 106 115 151 q 117 50 115 62 q 163 22 123 22 q 254 58 202 22 q 363 154 305 94 q 430 221 422 214 q 439 231 437 229 z "},"…":{"ha":740,"x_min":98,"x_max":642,"o":"m 119 121 q 129 101 123 109 q 155 94 135 94 q 181 92 174 94 q 212 47 212 83 q 207 24 212 35 q 165 -2 193 -2 q 118 13 138 -2 q 98 58 98 28 q 98 73 98 68 q 119 121 99 77 m 333 121 q 343 101 337 109 q 368 94 349 94 q 395 92 388 94 q 425 47 425 83 q 420 24 425 35 q 379 -2 407 -2 q 331 13 351 -2 q 311 58 311 28 q 312 73 311 68 q 333 121 313 77 m 550 121 q 560 101 554 109 q 585 94 566 94 q 612 92 605 94 q 642 47 642 83 q 637 24 642 35 q 596 -2 624 -2 q 548 13 568 -2 q 528 58 528 28 q 529 73 528 68 q 550 121 530 77 z "},"—":{"ha":745,"x_min":38,"x_max":628,"o":"m 38 296 q 53 308 38 308 q 584 335 424 334 l 601 335 q 626 307 618 335 q 628 293 628 299 q 589 280 627 280 q 387 268 492 278 q 193 257 281 257 q 79 262 105 257 q 38 296 41 273 z "},"–":{"ha":593,"x_min":125,"x_max":530,"o":"m 530 290 q 486 277 529 278 q 367 267 442 276 q 232 257 291 257 q 152 260 174 257 q 125 292 125 270 q 134 302 125 301 l 136 302 q 511 327 394 327 q 528 299 523 327 q 530 290 530 293 z "},"=":{"ha":904,"x_min":132,"x_max":642,"o":"m 616 509 l 622 509 q 641 484 635 509 q 642 473 642 477 q 613 461 642 461 q 454 450 539 459 q 297 441 369 441 q 205 446 224 442 q 179 475 179 452 q 189 486 179 485 l 191 486 q 616 509 452 507 m 595 290 q 543 277 594 278 q 407 267 492 276 q 250 258 321 258 q 159 262 177 258 q 132 292 136 267 q 141 302 132 301 l 143 302 q 574 326 431 326 q 593 300 587 326 q 595 290 595 294 z "},"ð":{"ha":483,"x_min":15,"x_max":472,"o":"m 291 463 l 304 461 q 318 463 313 461 q 335 538 327 494 q 273 534 313 534 q 217 538 232 534 q 199 568 199 549 q 206 579 200 577 q 342 595 282 589 q 351 727 351 669 q 349 805 351 785 q 376 830 353 828 q 420 815 409 830 q 432 788 431 800 l 396 600 q 460 602 432 602 q 472 566 469 595 q 447 553 471 554 q 386 547 422 553 q 289 96 312 167 q 250 -5 266 26 q 117 -96 200 -96 q 15 -9 16 -94 q 89 205 15 58 q 123 273 115 258 q 236 432 177 378 q 291 463 269 462 m 248 333 q 176 248 226 333 l 165 229 q 75 0 77 58 q 104 -35 76 -34 q 236 98 193 -35 q 264 280 264 184 q 248 333 263 332 z "},"!":{"ha":251,"x_min":33,"x_max":228,"o":"m 186 677 q 228 647 228 677 q 218 596 228 642 q 197 460 208 550 q 138 212 176 294 q 110 194 128 195 q 89 212 92 194 q 89 224 89 214 q 94 260 88 233 q 128 442 104 306 q 158 604 152 578 q 170 652 165 630 q 186 677 174 674 m 94 83 q 134 41 134 83 q 131 23 134 32 q 95 -2 120 -2 q 51 11 69 -2 q 33 44 33 24 q 40 80 33 64 q 52 109 47 97 q 60 91 55 98 q 94 83 66 83 z "},"¡":{"ha":251,"x_min":39,"x_max":235,"o":"m 81 -121 q 39 -91 39 -121 q 50 -40 39 -85 q 71 96 60 6 q 130 345 91 262 q 157 362 139 361 q 178 345 176 362 q 179 332 178 342 q 173 296 179 323 q 139 114 163 250 q 109 -48 115 -22 q 98 -96 102 -74 q 81 -121 93 -118 m 174 473 q 133 515 133 473 q 136 533 133 524 q 173 558 147 558 q 216 545 198 558 q 235 512 235 532 q 228 476 235 492 q 215 448 220 459 q 207 466 212 458 q 174 473 201 473 z "},"f":{"ha":298,"x_min":-254,"x_max":449,"o":"m 355 465 l 286 468 q 186 400 224 467 q 92 134 148 333 q 15 -118 35 -65 q -193 -391 -83 -370 q -212 -393 -203 -393 q -254 -357 -250 -393 q -232 -330 -254 -337 q -116 -271 -148 -305 q -61 -190 -83 -237 q 68 237 0 -60 q 205 751 136 533 q 249 830 222 804 q 296 857 275 857 q 346 777 346 857 q 330 734 346 749 q 294 720 313 720 q 262 732 275 720 q 234 634 250 688 q 202 517 218 581 q 245 538 221 538 q 313 523 269 538 q 380 507 357 507 l 438 521 q 449 512 448 519 q 383 467 449 475 q 355 465 369 465 z "},"g":{"ha":463,"x_min":7,"x_max":507,"o":"m 458 414 q 431 437 448 437 q 424 436 427 437 q 260 343 365 413 q 152 242 155 273 q 160 235 153 236 q 238 268 180 235 q 300 303 295 300 q 319 313 306 305 l 339 325 q 458 414 452 388 m 334 182 l 334 184 q 339 221 339 218 q 319 232 338 232 q 278 222 300 233 q 178 169 255 212 q 49 125 100 125 q 9 140 33 125 q 7 223 -37 170 q 121 321 41 262 l 245 414 q 418 511 377 511 q 500 463 460 510 q 477 414 483 453 q 486 414 478 414 q 500 411 493 414 q 507 379 507 407 q 502 351 507 352 q 463 325 492 351 q 420 277 434 299 q 375 30 407 172 q 231 -389 307 -271 q 175 -458 208 -425 q 38 -530 100 -530 q 8 -515 8 -530 q 27 -506 9 -510 q 69 -488 46 -501 q 148 -410 117 -458 q 244 -191 204 -320 q 334 182 285 -61 z "},"ß":{"ha":371,"x_min":-21,"x_max":422,"o":"m 180 125 q 151 145 151 125 q 163 164 152 155 q 175 174 175 173 q 279 262 235 209 q 370 510 370 371 q 361 535 370 534 q 289 503 335 535 q 236 471 242 471 q 229 476 230 471 l 229 479 q 230 486 229 481 q 232 496 231 490 q 234 508 233 501 q 237 522 235 515 q 241 535 239 528 q 246 549 243 543 q 262 571 252 561 q 294 607 273 581 q 355 716 355 682 q 337 730 355 729 q 261 701 307 730 q 172 357 252 658 q 37 -125 56 -82 q -1 -195 16 -195 q -21 -144 -20 -195 q 61 192 -21 -117 q 214 734 143 501 q 317 791 233 791 q 365 783 342 791 q 416 716 416 764 q 332 579 416 669 l 342 579 q 396 549 371 578 q 422 480 422 519 q 409 400 422 442 q 311 214 380 304 q 180 125 242 125 z "},"`":{"ha":307,"x_min":47,"x_max":235,"o":"m 88 767 q 99 758 94 766 q 127 700 104 750 q 173 621 151 650 q 230 584 196 593 l 231 583 q 235 577 235 581 q 228 565 235 573 q 210 557 222 557 q 118 620 190 557 q 47 718 47 682 q 54 741 47 729 q 88 767 67 767 z "},">":{"ha":525,"x_min":78,"x_max":431,"o":"m 153 512 q 220 486 174 511 q 373 400 330 420 q 418 378 417 379 q 431 356 431 372 q 428 336 431 340 q 411 326 425 333 q 315 272 397 319 q 163 191 234 226 q 86 156 93 156 q 78 170 79 156 q 89 200 78 184 q 131 234 100 216 q 177 261 161 251 q 262 304 194 271 q 361 354 330 336 q 262 402 327 366 q 182 445 197 438 q 143 499 142 462 q 153 512 144 511 z "},"«":{"ha":701,"x_min":63,"x_max":615,"o":"m 334 79 q 265 106 313 81 q 111 192 153 171 q 63 217 66 214 q 71 262 43 249 q 84 269 76 264 l 115 287 q 326 402 255 368 q 399 436 397 436 q 409 421 408 435 q 398 391 409 407 q 356 358 387 375 q 309 330 326 340 q 223 286 292 319 q 125 237 153 252 q 223 190 159 225 q 303 147 287 154 q 344 92 344 130 q 334 79 343 81 m 541 79 q 471 106 519 81 q 317 192 359 171 q 269 217 273 214 q 277 262 249 249 q 290 269 282 264 l 319 286 q 534 402 466 369 q 606 436 603 436 q 615 421 614 435 q 604 391 615 407 q 563 358 593 375 q 515 330 532 340 q 429 286 498 319 q 332 237 359 252 q 429 190 365 225 q 509 147 493 154 q 550 92 550 130 q 541 79 549 81 z "},"»":{"ha":694,"x_min":76,"x_max":635,"o":"m 357 436 q 424 410 378 435 q 577 324 534 345 q 622 302 621 303 q 635 280 635 296 q 632 260 635 264 q 615 250 629 257 q 519 196 601 243 q 368 115 438 150 q 290 80 297 80 q 282 94 283 80 q 291 122 282 109 q 334 158 304 140 q 381 185 365 175 q 466 228 398 195 q 566 278 534 260 q 466 326 531 290 q 387 369 401 362 q 347 423 347 387 q 357 436 348 435 m 417 302 q 428 278 428 292 q 426 260 429 264 q 409 250 422 257 q 313 196 395 243 q 161 115 232 150 q 84 80 91 80 q 76 94 77 80 q 85 122 76 109 q 128 158 98 140 q 175 185 159 175 q 260 228 192 195 q 359 278 328 260 q 260 326 325 290 q 180 369 195 362 q 141 423 141 387 q 151 436 142 435 q 218 410 172 435 q 416 302 306 357 l 417 302 z "},"h":{"ha":378,"x_min":-26,"x_max":506,"o":"m 195 403 q 221 434 196 404 q 256 475 246 464 l 269 488 q 310 501 283 501 q 338 473 337 500 q 329 440 338 466 q 303 344 319 414 q 262 67 262 173 q 275 23 262 24 q 340 77 296 23 q 466 298 380 125 q 496 320 479 320 q 506 305 505 318 q 488 225 506 271 q 384 58 453 136 q 269 -20 314 -20 q 202 88 203 -19 q 231 338 202 176 q 153 270 188 324 q 83 113 119 216 q 31 -7 45 6 q -6 -19 14 -20 q -26 -5 -26 -19 q 43 198 -27 9 q 203 587 114 387 q 305 850 292 788 q 340 870 310 869 q 361 867 351 870 q 389 841 389 860 q 385 826 389 834 l 376 810 q 195 403 324 718 z "},"-":{"ha":454,"x_min":90,"x_max":363,"o":"m 346 277 q 253 266 303 275 q 163 257 202 257 q 109 260 123 257 q 90 291 91 271 q 98 302 92 300 q 351 324 269 324 q 363 289 361 318 q 346 277 363 277 z "},"i":{"ha":332,"x_min":58,"x_max":414,"o":"m 250 625 q 233 636 247 627 q 217 653 217 648 q 268 739 217 671 q 326 821 319 807 q 372 804 342 838 q 387 758 396 775 q 330 683 382 740 q 250 625 277 626 m 412 199 q 313 56 387 129 q 165 -31 224 -31 q 64 60 84 -31 q 58 121 58 88 q 98 364 57 226 q 194 539 149 539 q 227 529 216 539 q 237 513 237 518 q 193 407 237 492 q 139 283 149 321 q 123 183 128 245 q 118 104 118 122 q 133 30 118 45 q 168 14 147 15 q 311 118 228 14 q 373 212 351 169 q 394 228 383 228 q 414 210 412 225 q 412 199 414 208 z "},"í":{"ha":318,"x_min":50,"x_max":407,"o":"m 191 646 q 288 772 222 665 q 304 783 297 782 q 334 752 323 783 q 339 731 338 740 q 241 633 339 696 q 162 591 174 591 q 138 602 149 591 q 131 615 130 609 q 136 623 132 621 q 191 646 165 625 m 405 199 q 305 56 380 129 q 157 -31 217 -31 q 56 60 77 -31 q 50 121 50 88 q 91 364 50 226 q 186 539 142 539 q 219 529 209 539 q 230 513 230 518 q 186 407 230 492 q 131 283 142 321 q 116 183 121 245 q 111 104 111 122 q 125 30 111 45 q 161 14 140 15 q 303 118 220 14 q 366 212 343 169 q 387 228 376 228 q 407 210 405 225 q 405 199 407 208 z "},"î":{"ha":318,"x_min":50,"x_max":407,"o":"m 275 693 q 178 609 230 659 q 157 595 162 595 q 144 620 144 597 q 162 660 144 642 q 216 708 180 677 q 270 758 252 740 q 301 776 288 776 q 321 763 314 776 q 328 744 328 750 q 323 704 328 738 q 315 649 318 671 q 296 616 311 628 q 271 604 281 604 q 264 620 264 605 q 275 693 264 635 m 405 199 q 305 56 380 129 q 157 -31 217 -31 q 56 60 77 -31 q 50 121 50 88 q 91 364 50 226 q 186 539 142 539 q 219 529 209 539 q 230 513 230 518 q 186 407 230 492 q 131 283 142 321 q 116 183 121 245 q 111 104 111 122 q 125 30 111 45 q 161 14 140 15 q 303 118 220 14 q 366 212 343 169 q 387 228 376 228 q 407 210 405 225 q 405 199 407 208 z "},"ï":{"ha":318,"x_min":50,"x_max":407,"o":"m 250 610 q 301 667 279 625 q 317 728 308 679 q 330 797 326 778 q 354 817 335 817 q 389 800 374 818 q 404 772 404 783 q 338 650 404 738 q 299 604 315 620 q 249 597 271 576 q 250 610 242 604 m 180 628 q 202 700 192 644 q 216 774 212 755 q 240 793 221 793 q 275 776 260 793 q 290 747 290 759 q 224 625 290 719 q 191 587 206 601 q 164 570 174 571 q 146 576 154 569 q 143 592 134 587 q 180 628 165 606 m 405 199 q 305 56 380 129 q 157 -31 217 -31 q 56 60 77 -31 q 50 121 50 88 q 91 364 50 226 q 186 539 142 539 q 219 529 209 539 q 230 513 230 518 q 186 407 230 492 q 131 283 142 321 q 116 183 121 245 q 111 104 111 122 q 125 30 111 45 q 161 14 140 15 q 303 118 220 14 q 366 212 343 169 q 387 228 376 228 q 407 210 405 225 q 405 199 407 208 z "},"ì":{"ha":318,"x_min":50,"x_max":407,"o":"m 172 767 q 182 758 178 766 q 211 700 187 750 q 257 621 234 650 q 313 584 279 593 l 314 583 q 318 577 318 581 q 311 565 318 573 q 294 557 306 557 q 202 620 273 557 q 130 718 130 682 q 137 741 130 729 q 172 767 151 767 m 405 199 q 305 56 380 129 q 157 -31 217 -31 q 56 60 77 -31 q 50 121 50 88 q 91 364 50 226 q 186 539 142 539 q 219 529 209 539 q 230 513 230 518 q 186 407 230 492 q 131 283 142 321 q 116 183 121 245 q 111 104 111 122 q 125 30 111 45 q 161 14 140 15 q 303 118 220 14 q 366 212 343 169 q 387 228 376 228 q 407 210 405 225 q 405 199 407 208 z "},"j":{"ha":220,"x_min":-275,"x_max":346,"o":"m 212 519 q 180 382 212 509 l 81 -14 q -53 -389 15 -281 q -110 -458 -76 -425 q -246 -530 -184 -530 q -275 -515 -275 -530 q -257 -506 -275 -510 q -217 -489 -239 -502 q -137 -409 -169 -460 q 7 -14 -49 -267 q 85 317 45 163 q 130 494 125 471 q 138 523 134 517 q 191 538 149 538 q 212 519 210 538 m 208 623 q 191 633 205 623 q 175 651 175 644 q 225 737 175 669 q 283 818 276 805 q 299 823 288 823 q 328 803 311 823 q 346 757 351 777 q 288 681 340 738 q 208 623 235 623 z "},"k":{"ha":331,"x_min":4,"x_max":397,"o":"m 367 821 q 396 772 396 800 q 376 728 397 744 q 302 659 328 693 q 257 554 276 625 q 219 441 237 484 q 261 454 225 446 q 320 463 297 463 q 389 421 390 463 q 338 329 389 387 q 189 208 288 271 q 184 110 184 182 q 197 -26 184 38 q 278 -165 222 -165 q 313 -149 293 -164 q 339 -134 334 -134 q 356 -140 345 -134 q 366 -160 366 -146 q 293 -206 365 -206 q 180 -146 220 -205 q 115 107 130 -73 q 107 168 111 168 q 80 90 104 161 q 36 20 56 20 q 28 22 33 20 q 4 47 4 31 q 14 89 4 63 q 29 129 24 114 q 68 233 34 144 q 338 817 247 694 q 367 821 350 829 m 307 389 q 297 397 307 397 q 250 383 286 397 q 182 340 213 369 q 167 296 168 326 q 183 277 169 281 q 254 324 200 277 q 307 389 308 370 z "},"l":{"ha":284,"x_min":2,"x_max":433,"o":"m 58 -42 q 79 -148 58 -97 q 188 -233 116 -233 q 282 -204 244 -233 q 373 -110 321 -176 q 407 -96 389 -89 q 425 -123 425 -102 q 349 -233 425 -187 q 205 -278 273 -278 q 2 -38 2 -278 q 41 181 2 67 l 48 201 q 245 688 175 564 q 351 778 294 778 q 433 720 431 777 q 385 606 433 684 q 191 335 336 528 q 126 241 155 294 q 58 -42 58 113 m 182 411 q 276 558 193 412 q 359 709 360 704 q 354 714 359 714 q 348 713 349 715 q 253 569 326 700 q 181 414 181 439 q 182 411 181 412 z "},"<":{"ha":507,"x_min":56,"x_max":408,"o":"m 333 155 q 265 182 312 157 q 111 268 154 247 q 65 290 67 288 q 56 309 56 296 q 57 328 56 322 q 66 336 58 332 q 153 385 83 344 q 310 470 227 429 q 400 511 393 511 q 408 497 408 511 q 397 467 408 483 q 355 434 385 452 l 319 412 q 222 362 291 395 q 125 313 154 329 q 222 266 158 301 q 302 223 286 230 q 343 168 343 206 q 333 155 342 157 z "},"¬":{"ha":660,"x_min":100,"x_max":561,"o":"m 532 468 q 260 452 532 468 q 124 455 142 452 q 100 473 106 458 q 100 479 100 475 q 112 485 100 485 q 539 503 402 503 q 560 479 554 503 l 561 477 l 561 475 l 560 474 q 536 366 557 436 l 514 290 q 499 286 512 286 q 486 294 487 286 q 503 384 486 323 q 532 468 519 446 l 532 468 z "},"m":{"ha":511,"x_min":-89,"x_max":609,"o":"m 236 494 l 245 495 q 280 475 281 494 q 276 459 279 467 q 253 408 273 450 q 233 336 229 356 l 233 332 l 283 408 q 356 515 332 482 q 379 524 363 524 q 406 516 395 524 q 417 503 416 507 l 413 492 q 291 69 291 196 q 326 6 291 16 q 391 25 357 -3 q 557 218 484 100 l 570 240 q 591 253 576 251 q 609 233 609 253 q 531 107 609 198 q 416 -13 454 16 q 334 -41 378 -41 q 261 12 290 -41 q 241 96 241 48 q 264 225 241 144 q 289 321 287 305 q 290 340 291 338 q 217 224 258 298 l 163 128 q 138 109 151 109 q 104 150 104 109 q 131 222 104 169 q 157 300 157 276 q 125 241 148 284 q -7 64 75 146 q -66 28 -39 34 q -89 49 -106 33 q -14 129 -43 94 q 72 299 45 203 q 101 411 98 395 q 114 464 104 427 l 127 512 q 151 567 138 555 q 182 578 164 578 q 215 557 215 578 q 163 431 215 536 q 100 293 112 326 q 124 329 104 298 q 148 366 144 360 q 162 390 151 371 q 236 494 220 494 z "},"¯":{"ha":632,"x_min":39,"x_max":588,"o":"m 564 635 q 588 606 583 635 q 552 597 587 597 l 231 581 q 72 586 104 581 q 39 608 41 591 q 51 617 39 614 q 53 617 51 617 l 257 626 q 503 635 450 635 q 564 635 503 635 z "},"µ":{"ha":475,"x_min":-153,"x_max":596,"o":"m 87 94 q 6 -76 19 -54 q -25 -120 -7 -97 q -83 -170 -43 -143 q -138 -197 -123 -197 q -153 -191 -153 -197 q -135 -166 -151 -184 q -15 13 -77 -105 q 124 316 46 131 q 214 534 203 501 q 234 572 226 568 q 253 576 241 576 q 276 565 264 576 q 288 547 288 553 q 279 513 289 540 l 253 439 q 151 94 162 178 q 272 313 201 171 q 357 483 342 455 q 380 530 372 511 q 395 552 388 550 q 420 555 401 555 q 448 530 446 555 q 439 498 448 519 q 364 268 399 401 q 330 85 330 134 q 339 36 330 37 q 447 121 369 36 q 560 275 524 206 q 589 302 575 302 q 596 292 595 301 q 520 143 596 235 q 391 14 445 52 l 377 5 q 332 -7 353 -7 q 271 94 271 -5 q 283 186 270 138 l 299 241 q 188 40 233 95 q 108 -14 144 -14 q 81 35 81 -13 q 87 94 81 59 z "},"×":{"ha":602,"x_min":153,"x_max":483,"o":"m 245 585 q 267 560 256 585 q 327 419 294 486 q 434 551 378 486 q 450 555 438 555 q 472 546 461 555 q 483 528 483 538 q 448 476 483 519 q 360 351 414 434 q 401 246 376 317 q 426 158 426 176 q 412 130 426 141 q 394 119 398 118 q 385 127 389 119 l 313 284 l 300 269 q 211 173 226 182 q 175 163 196 163 q 153 178 153 163 q 157 186 153 182 l 280 357 q 206 555 206 519 q 223 576 206 568 q 245 585 240 585 z "},"n":{"ha":430,"x_min":-39,"x_max":545,"o":"m 545 254 q 468 129 545 220 q 352 9 391 38 q 275 -20 314 -20 q 203 94 203 -19 q 225 262 203 148 q 248 387 247 376 q 111 206 176 363 q 67 93 97 173 q 26 -1 38 14 q -14 -19 11 -19 q -39 -1 -38 -19 q 179 538 -39 31 q 218 628 213 618 q 267 626 230 650 q 278 611 277 618 q 267 587 278 604 q 222 496 242 548 l 197 429 l 218 455 q 265 510 248 491 q 295 531 283 528 q 319 533 307 533 q 349 503 347 531 q 339 467 349 490 q 273 169 296 368 q 268 69 267 112 q 288 25 268 26 q 392 114 317 25 q 500 260 467 202 q 526 275 509 275 q 545 254 543 271 z "},"ñ":{"ha":422,"x_min":-39,"x_max":593,"o":"m 461 667 q 498 743 484 696 q 538 800 515 800 q 577 780 562 800 q 593 749 593 761 q 586 720 593 737 q 478 612 556 650 q 369 588 426 588 q 311 608 311 588 q 336 616 312 616 q 461 667 422 616 m 545 254 q 468 129 545 220 q 352 9 391 38 q 275 -20 314 -20 q 203 94 203 -19 q 225 262 203 148 q 248 387 247 376 q 111 206 176 363 q 67 93 97 173 q 26 -1 38 14 q -14 -19 11 -19 q -39 -1 -38 -19 q 179 538 -39 31 q 218 628 213 618 q 267 626 230 650 q 278 611 277 618 q 267 587 278 604 q 222 496 242 548 l 197 429 l 218 455 q 265 510 248 491 q 295 531 283 528 q 319 533 307 533 q 349 503 347 531 q 339 467 349 490 q 273 169 296 368 q 268 69 267 112 q 288 25 268 26 q 392 114 317 25 q 500 260 467 202 q 526 275 509 275 q 545 254 543 271 z "},"#":{"ha":598,"x_min":-49,"x_max":652,"o":"m 38 481 q 53 492 38 492 l 233 505 l 357 757 q 362 767 359 760 q 382 774 366 774 q 406 764 399 774 q 413 742 413 754 q 380 662 414 730 q 312 510 347 593 q 478 517 399 515 q 599 763 507 579 q 621 774 604 774 q 645 764 638 774 q 652 742 652 754 q 625 673 652 730 q 555 519 597 616 l 601 519 q 626 492 618 519 q 628 477 628 484 q 589 465 627 465 l 531 463 l 494 372 q 452 269 466 301 q 514 270 473 270 q 539 242 531 270 q 541 228 541 234 q 495 214 541 215 q 425 212 450 214 q 315 1 319 1 q 277 -29 292 -28 q 257 -15 262 -29 q 260 9 255 -5 l 341 206 q 260 198 314 204 q 176 192 207 193 q 72 -3 92 22 q 38 -29 53 -28 q 18 -15 24 -29 q 22 9 16 -5 l 96 192 q -7 197 18 192 q -49 231 -45 208 q -31 243 -49 243 q 40 248 -13 244 l 123 254 l 204 441 q 79 446 101 441 q 38 481 41 458 m 208 259 q 367 267 252 262 l 450 458 q 363 450 418 455 q 283 443 309 444 q 208 259 221 288 z "},"o":{"ha":271,"x_min":10,"x_max":260,"o":"m 215 476 q 127 307 181 471 q 74 113 74 142 q 79 83 74 83 q 168 205 108 83 q 229 429 229 328 q 215 476 229 475 m 204 560 q 237 549 223 560 q 260 471 260 529 q 165 71 260 204 l 156 57 q 61 -28 97 -28 q 10 36 17 -24 q 51 237 10 85 q 143 498 91 388 q 204 560 173 559 z "},"ó":{"ha":285,"x_min":10,"x_max":372,"o":"m 224 646 q 321 772 254 665 q 337 783 330 782 q 367 752 355 783 q 372 731 371 740 q 274 633 372 696 q 194 591 207 591 q 170 602 182 591 q 163 615 163 609 q 168 623 164 621 q 224 646 198 625 m 215 476 q 127 307 181 471 q 74 113 74 142 q 79 83 74 83 q 168 205 108 83 q 229 429 229 328 q 215 476 229 475 m 204 560 q 237 549 223 560 q 260 471 260 529 q 165 71 260 204 l 156 57 q 61 -28 97 -28 q 10 36 17 -24 q 51 237 10 85 q 143 498 91 388 q 204 560 173 559 z "},"ô":{"ha":285,"x_min":10,"x_max":348,"o":"m 295 693 q 198 609 250 659 q 178 595 182 595 q 164 620 164 597 q 182 660 164 642 q 236 708 200 677 q 290 758 273 740 q 321 776 308 776 q 341 763 334 776 q 348 744 348 750 q 343 704 348 738 q 335 649 338 671 q 316 616 332 628 q 292 604 301 604 q 284 620 285 605 q 295 693 284 635 m 215 476 q 127 307 181 471 q 74 113 74 142 q 79 83 74 83 q 168 205 108 83 q 229 429 229 328 q 215 476 229 475 m 204 560 q 237 549 223 560 q 260 471 260 529 q 165 71 260 204 l 156 57 q 61 -28 97 -28 q 10 36 17 -24 q 51 237 10 85 q 143 498 91 388 q 204 560 173 559 z "},"ö":{"ha":285,"x_min":10,"x_max":414,"o":"m 260 610 q 311 667 290 625 q 327 728 318 679 q 340 797 336 778 q 365 817 345 817 q 399 800 384 818 q 414 772 414 783 q 348 650 414 738 q 309 604 326 620 q 259 597 281 576 q 260 610 252 604 m 190 628 q 212 700 202 644 q 227 774 222 755 q 251 793 231 793 q 285 776 270 793 q 300 747 300 759 q 234 625 300 719 q 201 587 216 601 q 174 570 184 571 q 157 576 164 569 q 153 592 144 587 q 190 628 176 606 m 215 476 q 127 307 181 471 q 74 113 74 142 q 79 83 74 83 q 168 205 108 83 q 229 429 229 328 q 215 476 229 475 m 204 560 q 237 549 223 560 q 260 471 260 529 q 165 71 260 204 l 156 57 q 61 -28 97 -28 q 10 36 17 -24 q 51 237 10 85 q 143 498 91 388 q 204 560 173 559 z "},"ò":{"ha":285,"x_min":10,"x_max":361,"o":"m 215 767 q 226 758 221 766 q 254 700 231 750 q 300 621 277 650 q 357 584 323 593 l 357 583 q 361 577 361 581 q 355 565 361 573 q 337 557 349 557 q 245 620 317 557 q 174 718 174 682 q 180 741 174 729 q 215 767 194 767 m 215 476 q 127 307 181 471 q 74 113 74 142 q 79 83 74 83 q 168 205 108 83 q 229 429 229 328 q 215 476 229 475 m 204 560 q 237 549 223 560 q 260 471 260 529 q 165 71 260 204 l 156 57 q 61 -28 97 -28 q 10 36 17 -24 q 51 237 10 85 q 143 498 91 388 q 204 560 173 559 z "},"½":{"ha":703,"x_min":68,"x_max":631,"o":"m 498 774 q 533 742 532 773 q 492 645 533 730 q 391 412 450 559 q 307 216 332 265 q 192 -3 211 22 q 158 -29 172 -28 q 138 -15 143 -29 q 141 9 136 -5 q 420 640 376 550 l 479 763 q 498 774 485 774 m 215 633 q 129 539 172 596 q 88 508 104 508 q 68 515 69 508 q 203 697 68 547 l 204 698 q 278 734 232 734 q 296 726 293 734 q 296 721 296 724 q 289 698 296 717 l 193 401 q 141 331 171 332 q 130 348 130 332 q 140 394 130 363 l 166 474 q 215 633 199 577 m 552 45 l 530 52 q 464 23 506 52 q 409 -9 422 -7 q 389 -13 396 -12 q 370 14 372 -13 q 370 34 370 18 q 384 66 370 50 l 484 184 q 566 313 566 280 q 523 296 549 312 q 485 281 497 281 q 472 288 473 281 q 485 307 473 296 q 582 365 552 365 q 626 344 612 365 q 631 326 631 335 q 585 243 631 300 l 566 218 q 500 135 548 197 l 444 61 q 530 75 492 75 q 555 57 549 75 q 552 45 559 47 z "},"¼":{"ha":685,"x_min":68,"x_max":628,"o":"m 522 189 q 396 138 410 138 q 380 145 382 138 q 399 182 380 159 q 559 361 472 274 q 600 372 573 372 q 628 360 627 372 q 592 257 628 355 q 517 71 557 160 q 474 -20 478 -19 q 468 16 468 -18 q 494 116 468 51 q 522 189 519 180 m 530 232 l 564 308 q 468 204 515 258 l 530 232 m 498 774 q 533 742 532 773 q 492 645 533 730 q 391 412 450 559 q 307 216 332 265 q 192 -3 211 22 q 158 -29 172 -28 q 138 -15 143 -29 q 141 9 136 -5 q 420 640 376 550 l 479 763 q 498 774 485 774 m 215 633 q 123 532 169 593 q 114 520 121 530 q 87 508 105 508 q 68 515 70 509 q 175 666 68 545 q 210 704 199 694 q 278 734 234 732 q 294 729 292 734 q 296 721 296 724 q 289 698 296 717 l 193 401 q 141 331 172 336 q 142 400 121 334 q 175 501 150 425 q 215 633 199 577 z "},"¹":{"ha":373,"x_min":226,"x_max":358,"o":"m 330 687 q 358 671 358 687 q 263 393 358 656 q 227 340 243 341 q 235 389 218 344 l 262 467 q 307 606 299 564 q 272 566 293 595 q 241 528 250 537 q 226 544 227 532 q 241 574 226 555 q 260 598 256 593 l 275 619 q 330 687 325 686 z "},"ª":{"ha":467,"x_min":203,"x_max":548,"o":"m 407 631 q 289 533 337 619 q 252 414 254 471 q 407 631 341 531 m 548 550 q 506 473 544 527 q 398 384 444 385 q 362 434 362 384 q 372 493 362 456 q 383 538 382 530 q 326 456 370 522 q 264 378 281 391 q 240 365 248 365 q 205 386 214 365 q 203 410 203 393 q 235 498 203 427 q 347 650 288 614 q 389 663 369 663 l 412 661 q 424 667 417 661 q 441 673 430 673 q 455 667 452 673 q 459 659 459 661 q 455 647 459 656 q 450 635 452 638 l 444 614 q 406 416 384 418 q 487 485 432 416 q 525 539 515 521 q 541 557 534 557 q 548 550 547 556 z "},"º":{"ha":467,"x_min":177,"x_max":433,"o":"m 281 355 q 210 386 243 355 q 177 478 177 418 q 202 591 177 538 q 321 674 243 674 q 380 661 354 674 q 433 567 433 633 q 399 439 433 501 q 281 355 355 355 m 314 616 q 249 562 274 616 q 223 456 223 508 q 258 405 224 405 q 324 468 297 406 q 350 573 351 531 q 314 616 350 615 z "},"ø":{"ha":375,"x_min":-42,"x_max":361,"o":"m 254 449 q 237 494 247 494 q 132 283 200 492 l 254 447 l 254 449 m 18 53 q -33 19 -14 17 q -42 22 -35 19 q -41 47 -54 26 l 33 149 q 58 238 42 188 q 158 498 105 395 q 171 523 169 519 q 221 558 191 558 q 266 541 251 557 q 289 492 281 524 l 320 531 q 335 537 325 537 q 361 517 361 532 q 339 481 359 505 l 294 422 q 291 376 294 397 q 184 87 262 184 l 157 52 q 72 -9 108 -9 q 18 53 18 -9 m 88 138 q 80 89 80 103 q 87 74 80 74 q 108 87 95 75 q 187 208 145 125 q 245 354 229 290 l 206 298 q 115 171 140 202 l 88 138 z "},"õ":{"ha":285,"x_min":10,"x_max":397,"o":"m 265 667 q 302 743 288 696 q 342 800 319 800 q 381 780 366 800 q 397 749 397 761 q 390 720 397 737 q 282 612 360 650 q 173 588 230 588 q 115 608 115 588 q 140 616 116 616 q 265 667 227 616 m 215 476 q 127 307 181 471 q 74 113 74 142 q 79 83 74 83 q 168 205 108 83 q 229 429 229 328 q 215 476 229 475 m 204 560 q 237 549 223 560 q 260 471 260 529 q 165 71 260 204 l 156 57 q 61 -28 97 -28 q 10 36 17 -24 q 51 237 10 85 q 143 498 91 388 q 204 560 173 559 z "},"p":{"ha":319,"x_min":-290,"x_max":341,"o":"m 77 56 q 252 335 198 184 q 278 445 272 392 q 229 467 262 467 q 182 452 197 467 l 151 328 q 77 56 105 147 m -67 -389 q -164 -492 -109 -454 q -255 -530 -220 -530 q -290 -515 -290 -530 q -273 -506 -290 -509 l -272 -506 q -169 -435 -218 -494 q -151 -409 -158 -422 q -4 -15 -68 -279 l 72 305 q 136 558 124 528 q 163 593 149 589 q 195 597 176 597 q 216 586 214 597 q 217 578 217 583 q 212 553 217 574 q 206 526 206 533 q 231 528 214 528 q 331 488 305 528 q 341 452 341 472 q 271 219 341 353 q 133 22 201 85 q 67 -15 94 -14 q -67 -389 3 -278 z "},"¶":{"ha":904,"x_min":-58,"x_max":886,"o":"m 509 58 q 581 352 509 58 q 665 689 652 647 q 517 677 583 684 q 488 577 495 606 q 470 495 488 577 q 381 115 399 182 q 199 -369 301 -195 q 127 -457 171 -416 q -24 -532 47 -532 q -58 -517 -58 -532 q -36 -504 -57 -509 q 9 -486 -15 -499 q 104 -394 64 -453 q 275 58 199 -244 q 285 96 282 83 q 161 184 210 119 q 92 421 92 276 l 92 434 q 155 661 96 566 q 305 760 214 756 q 441 767 336 761 q 856 772 547 772 q 873 760 865 772 q 886 716 886 740 q 842 698 886 699 l 757 694 l 752 677 q 678 382 723 583 q 615 115 633 182 q 433 -369 535 -195 q 359 -458 405 -416 q 210 -532 279 -532 q 177 -517 177 -532 q 201 -504 178 -510 q 253 -479 224 -498 q 338 -394 306 -445 q 509 58 433 -244 z "},"(":{"ha":208,"x_min":56,"x_max":271,"o":"m 229 806 q 271 712 271 806 q 260 672 271 688 q 127 286 164 532 q 113 125 115 203 q 118 -79 118 -45 q 111 -113 118 -113 q 68 22 90 -113 q 56 151 56 94 q 144 646 56 370 q 148 652 146 647 q 199 782 181 759 q 229 806 216 806 z "},")":{"ha":390,"x_min":89,"x_max":296,"o":"m 132 -115 q 89 -20 89 -115 q 100 21 89 4 q 112 38 111 37 q 225 368 191 159 q 242 565 242 471 q 238 715 242 659 q 234 788 234 772 q 241 805 234 804 q 283 684 263 805 q 295 584 294 624 l 296 539 q 197 -7 296 314 q 132 -115 162 -115 z "},"%":{"ha":664,"x_min":75,"x_max":600,"o":"m 511 734 q 532 743 517 743 q 555 733 547 743 q 563 711 563 724 q 513 616 564 699 q 389 395 463 534 q 286 208 315 255 q 153 4 175 31 q 95 -9 111 -40 q 100 18 91 1 l 421 589 q 511 734 466 666 m 178 391 q 108 421 141 391 q 75 512 75 452 q 101 626 75 573 q 218 707 141 707 q 275 695 250 707 q 329 602 328 669 q 295 473 329 536 q 178 391 250 391 m 243 651 q 179 595 204 650 q 153 490 153 540 q 189 441 153 441 q 254 502 227 441 q 280 607 280 563 q 243 651 279 650 m 450 0 q 379 31 412 0 q 347 122 347 61 q 372 235 347 182 q 490 317 412 317 q 546 304 521 317 q 600 212 600 278 q 566 83 600 145 q 450 0 522 0 m 515 260 q 450 204 475 260 q 425 100 425 149 q 460 50 425 50 q 525 112 498 51 q 551 216 551 172 q 515 260 551 260 z "},".":{"ha":333,"x_min":109,"x_max":223,"o":"m 131 121 q 141 101 135 109 q 166 94 146 94 q 193 92 186 94 q 223 47 223 83 q 218 24 223 35 q 177 -2 204 -2 q 129 13 149 -2 q 109 58 109 28 q 110 73 109 68 q 131 121 111 77 z "},"·":{"ha":302,"x_min":96,"x_max":210,"o":"m 164 376 q 210 329 210 376 q 205 307 210 317 q 164 280 192 280 q 116 295 136 280 q 96 340 96 311 q 96 355 96 350 q 117 404 97 360 q 127 383 121 391 q 164 376 133 376 z "},"+":{"ha":499,"x_min":73,"x_max":476,"o":"m 336 530 l 309 376 q 458 381 382 381 q 475 353 471 381 q 476 344 476 347 q 450 332 475 332 q 301 319 378 330 q 282 236 296 292 q 258 162 269 180 q 232 143 248 143 q 215 151 215 142 q 241 312 215 172 q 172 311 231 311 q 95 316 112 311 q 73 338 78 321 q 81 357 71 355 l 83 357 q 167 364 109 359 q 252 372 224 370 q 291 538 283 528 q 313 546 298 545 q 336 530 334 542 z "},"±":{"ha":625,"x_min":81,"x_max":535,"o":"m 395 487 l 368 332 q 517 338 452 338 q 534 310 528 338 q 535 300 535 304 q 509 289 534 289 q 359 276 437 286 q 341 197 357 261 q 316 116 325 133 q 291 100 307 100 q 273 107 275 100 q 300 269 273 129 q 230 268 290 268 q 155 273 171 269 q 130 302 130 279 q 140 313 130 312 l 141 313 q 311 328 239 323 q 349 495 341 485 q 375 502 356 502 q 395 487 395 503 m 486 29 q 442 17 486 18 q 323 6 399 16 q 184 -3 248 -3 q 106 1 122 -3 q 81 31 81 8 q 91 42 81 41 l 92 42 q 468 66 351 66 q 485 39 479 66 q 486 29 486 33 z "},"q":{"ha":420,"x_min":-30,"x_max":460,"o":"m 350 513 l 368 515 q 440 476 405 515 q 424 425 424 460 q 436 422 430 425 q 460 369 460 410 q 413 325 450 368 q 372 270 376 281 q 318 128 368 258 q 261 -22 268 -3 q 144 -526 144 -347 q 178 -667 144 -625 q 193 -691 192 -682 q 187 -702 193 -701 q 156 -687 178 -701 q 103 -616 133 -673 q 75 -471 74 -559 q 247 142 75 -320 l 277 224 q 252 212 264 220 q 155 142 240 205 q 24 79 71 79 q 1 87 15 79 q -30 125 -30 105 q -6 182 -30 146 q 88 287 18 219 q 175 374 157 355 q 220 418 192 392 q 350 513 316 505 m 136 204 q 263 291 159 204 l 302 321 q 404 423 404 397 q 382 448 389 448 l 369 441 q 244 347 320 410 q 125 214 125 245 q 136 204 126 205 z "},"?":{"ha":523,"x_min":146,"x_max":477,"o":"m 187 264 q 232 408 187 347 q 322 512 252 437 q 413 612 392 588 q 433 670 433 636 q 401 720 433 704 q 363 727 387 726 q 311 703 340 727 q 275 678 281 679 q 254 709 260 678 q 254 718 254 713 q 283 767 254 749 q 342 785 312 785 q 449 731 410 785 q 477 644 477 692 q 408 507 477 576 q 368 469 395 494 q 330 434 340 445 q 257 350 277 387 q 229 256 237 313 q 205 190 218 190 q 187 255 191 190 l 187 264 m 199 83 q 240 41 240 83 q 236 23 240 32 q 200 -2 225 -2 q 156 11 175 -2 q 146 83 125 33 l 158 109 q 166 91 161 98 q 199 83 171 83 z "},"¿":{"ha":467,"x_min":61,"x_max":391,"o":"m 351 265 q 306 121 351 182 q 216 17 286 92 q 125 -83 146 -59 q 104 -141 104 -107 q 137 -191 104 -175 q 174 -198 151 -197 q 227 -174 198 -198 q 262 -149 256 -150 q 283 -180 278 -149 q 284 -189 284 -184 q 255 -238 284 -220 q 195 -256 226 -256 q 89 -202 128 -256 q 61 -115 61 -163 q 130 22 61 -47 q 170 60 143 35 q 208 95 197 84 q 280 179 260 142 q 309 273 300 216 q 333 339 319 339 q 351 274 347 339 l 351 265 m 338 446 q 298 488 298 446 q 302 506 298 497 q 338 531 313 531 q 382 518 363 531 q 391 446 413 496 l 380 420 q 372 438 377 431 q 338 446 367 446 z "},"\"":{"ha":275,"x_min":5,"x_max":278,"o":"m 58 508 q 100 647 83 556 q 109 667 104 665 q 116 669 113 669 q 149 652 134 669 q 164 622 163 635 q 100 501 164 588 q 59 454 77 471 q 31 438 42 438 q 13 444 20 437 q 5 454 6 451 q 9 460 5 456 q 54 500 37 473 q 58 508 56 505 m 172 532 q 214 671 197 580 q 222 691 218 689 q 230 693 227 693 q 262 676 248 693 q 278 646 277 659 q 212 524 278 611 q 173 478 191 494 q 145 461 156 462 q 127 468 134 461 q 120 478 120 475 q 123 484 120 481 q 168 524 151 497 q 172 532 170 528 z "},"“":{"ha":425,"x_min":69,"x_max":348,"o":"m 232 696 q 132 513 165 665 q 115 492 127 492 q 84 509 99 492 q 69 541 69 527 q 142 661 69 573 q 206 720 190 720 q 229 712 222 720 q 232 696 239 701 m 302 678 q 248 533 267 625 q 230 511 243 512 q 199 529 214 511 q 184 560 185 547 q 257 681 184 593 q 297 724 279 709 q 348 728 327 749 q 347 715 355 721 q 302 678 319 703 z "},"”":{"ha":696,"x_min":171,"x_max":443,"o":"m 219 541 q 264 686 241 570 q 281 709 272 707 q 313 692 298 709 q 329 661 328 675 q 264 540 329 627 q 201 476 216 476 q 178 483 185 476 q 171 493 171 490 q 175 499 171 496 q 219 541 202 513 m 289 523 q 337 572 316 537 q 378 709 357 606 q 395 732 386 730 q 427 715 412 732 q 443 685 442 699 q 379 564 443 651 q 338 517 356 533 q 310 501 321 501 q 292 507 299 500 q 284 517 285 513 q 289 523 286 520 z "},"‘":{"ha":291,"x_min":47,"x_max":214,"o":"m 127 671 q 160 704 145 690 q 192 717 174 717 q 214 701 210 718 q 204 692 214 696 q 158 649 175 680 q 109 514 140 618 q 98 494 102 494 q 92 492 94 493 q 60 510 73 492 q 47 541 47 527 q 127 671 47 580 z "},"’":{"ha":300,"x_min":64,"x_max":222,"o":"m 113 541 q 159 686 136 572 q 175 708 163 709 q 207 691 192 708 q 222 661 222 675 q 157 538 222 626 q 118 493 135 509 q 90 476 101 477 q 72 483 79 476 q 64 493 64 490 q 68 499 64 496 q 113 541 96 513 z "},"'":{"ha":296,"x_min":101,"x_max":179,"o":"m 125 682 q 179 616 179 682 q 160 474 179 551 q 156 463 159 467 q 123 432 146 432 q 108 438 108 433 q 109 445 108 444 q 130 509 130 473 q 116 606 130 545 q 101 669 101 667 q 125 682 102 682 z "},"r":{"ha":414,"x_min":-31,"x_max":514,"o":"m 313 427 l 312 418 l 311 410 q 263 279 311 393 q 216 118 215 165 q 255 37 217 37 q 366 121 293 37 q 474 275 454 223 q 505 326 494 326 q 514 307 513 325 q 510 279 514 289 l 503 261 q 412 106 474 186 q 251 -13 321 -13 q 210 -1 229 -13 q 164 109 164 28 q 176 190 164 135 q 188 249 188 245 q 175 259 187 254 q 142 262 151 270 q 82 115 136 252 q 9 -22 29 -22 q -14 -14 3 -22 q -31 9 -31 -5 q -14 50 -31 12 l 24 136 q 116 378 63 227 l 206 633 q 228 644 210 643 l 245 644 q 278 621 278 644 q 243 519 278 609 q 197 380 208 429 l 195 359 q 199 349 195 351 q 216 379 201 350 l 233 414 q 241 430 237 420 q 277 458 256 458 q 313 429 312 457 l 313 427 z "},"®":{"ha":817,"x_min":71,"x_max":747,"o":"m 71 421 q 132 568 73 499 q 463 682 235 682 q 675 601 602 682 q 747 389 747 519 l 747 378 q 647 162 743 239 q 416 85 550 85 q 158 179 244 85 q 71 421 71 274 m 174 533 q 121 398 121 477 q 157 255 121 320 q 405 129 227 129 q 596 193 513 129 q 679 382 679 258 q 652 508 679 452 q 446 624 596 624 q 174 533 261 624 m 467 532 q 395 461 467 489 q 433 338 413 396 q 489 231 450 286 q 557 191 516 199 q 566 184 565 188 q 545 181 566 181 q 445 232 494 182 q 373 368 396 282 l 351 448 q 330 443 345 446 q 297 323 320 413 q 270 224 273 234 q 262 214 267 214 q 244 221 256 214 q 232 239 232 228 q 254 340 232 250 q 297 496 276 431 q 320 564 319 561 q 384 584 333 584 q 418 580 401 584 q 467 532 467 567 m 357 550 q 351 522 356 548 q 334 469 346 496 q 338 469 335 469 q 422 532 422 487 q 421 536 422 534 q 386 557 417 557 q 357 550 372 557 z "},"˚":{"ha":385,"x_min":123,"x_max":308,"o":"m 217 767 q 123 859 123 767 q 129 884 123 871 q 230 931 152 931 q 266 924 250 931 q 308 850 307 907 q 292 802 308 823 q 217 767 267 767 m 261 848 q 217 892 261 892 q 176 882 195 892 q 157 853 157 872 q 210 801 157 801 q 229 804 220 801 q 261 848 261 814 z "},"s":{"ha":279,"x_min":-20,"x_max":302,"o":"m 302 474 q 248 373 302 376 q 222 380 235 373 q 228 147 228 260 q 185 -14 228 34 q 122 -41 161 -41 q 64 -15 84 -41 q 45 38 45 12 q 85 71 46 70 q 107 36 111 71 q 123 1 104 1 q 168 94 160 1 q 172 213 172 137 q 159 290 172 289 q 144 272 154 290 q 99 198 135 254 q 36 115 62 142 q 1 85 9 88 q -20 98 -18 79 q 1 145 -20 118 q 142 369 74 242 q 157 403 157 398 l 157 500 q 184 543 157 528 q 206 549 196 549 q 284 524 248 549 q 302 497 301 512 q 302 474 302 482 m 217 429 q 244 445 240 433 q 248 468 248 456 q 246 486 248 480 q 218 458 226 486 q 216 440 216 448 q 217 429 216 432 z "},"§":{"ha":491,"x_min":54,"x_max":425,"o":"m 425 720 q 370 618 425 618 q 345 625 355 618 q 350 419 350 506 q 248 204 350 204 q 233 205 242 204 q 237 8 237 81 q 223 -110 237 -65 q 135 -193 197 -193 q 90 -180 111 -193 q 54 -114 53 -157 q 95 -81 54 -82 q 111 -89 106 -82 q 116 -123 115 -96 q 133 -151 117 -151 q 180 -11 180 -150 l 167 349 q 178 379 167 363 q 228 396 189 396 q 294 369 267 396 q 279 745 294 383 q 292 777 279 761 q 331 793 305 793 q 376 785 357 793 q 425 720 424 766 m 258 316 l 256 334 q 236 326 248 334 q 225 299 224 317 q 227 277 225 281 q 258 316 256 281 m 339 674 q 370 713 369 678 q 368 731 370 722 q 350 723 361 731 q 338 696 338 714 q 339 674 338 677 z "},";":{"ha":491,"x_min":227,"x_max":359,"o":"m 267 467 q 277 447 271 454 q 303 439 283 439 q 359 393 359 439 q 354 370 359 380 q 314 344 341 344 q 266 358 286 344 q 254 439 231 382 l 267 467 m 285 132 q 332 90 321 132 q 336 61 336 77 q 300 -42 336 10 q 235 -94 265 -94 q 227 -89 228 -94 q 237 -74 228 -85 q 253 58 322 -3 q 231 85 231 77 q 260 126 231 111 q 285 132 272 132 z "},"/":{"ha":515,"x_min":36,"x_max":471,"o":"m 437 764 q 471 737 471 760 q 424 637 470 721 q 310 409 378 554 q 175 148 241 264 q 88 7 108 32 q 51 -18 68 -17 q 45 -16 48 -18 q 36 22 22 -8 l 130 206 q 418 753 321 583 q 437 764 424 763 z "}," ":{"ha":326,"x_min":0,"x_max":0,"o":""},"£":{"ha":589,"x_min":73,"x_max":562,"o":"m 121 -33 q 113 -33 121 -33 q 104 -16 104 -33 q 119 52 104 1 q 180 290 135 103 q 89 298 104 290 q 73 319 73 306 q 83 335 73 333 l 193 345 l 204 389 q 210 412 207 400 q 340 763 270 652 q 395 831 362 798 q 532 904 469 904 q 562 890 562 904 q 545 880 562 884 q 363 687 433 854 q 297 463 333 615 l 271 351 q 459 359 375 359 q 470 350 463 359 q 477 322 477 342 q 451 311 476 311 q 326 300 382 308 q 256 292 269 293 q 194 37 207 80 q 477 42 374 42 q 499 31 489 41 q 514 -1 514 16 q 453 -15 513 -14 q 283 -22 393 -15 q 151 -30 172 -29 q 121 -33 139 -33 z "},"t":{"ha":361,"x_min":-63,"x_max":532,"o":"m 262 524 l 506 530 q 522 516 513 530 q 532 481 531 503 q 493 465 531 466 q 220 438 380 463 q 183 342 209 405 q 70 -42 70 68 q 91 -148 70 -97 q 200 -233 127 -233 q 295 -204 256 -233 q 385 -110 333 -176 q 419 -95 401 -89 q 436 -124 436 -102 q 364 -228 436 -186 q 210 -270 292 -270 q 67 -210 127 -270 q 7 -49 7 -149 q 24 95 7 18 q 86 286 41 172 q 144 438 131 400 q -12 441 4 438 q -63 484 -62 452 q -47 497 -62 494 l 173 515 l 318 760 q 363 802 343 802 q 382 799 372 802 q 422 770 422 790 q 382 709 422 750 q 332 656 341 667 q 262 524 300 616 z "},"þ":{"ha":470,"x_min":-157,"x_max":421,"o":"m 171 140 q 169 103 169 121 q 184 85 170 85 q 276 201 217 85 q 359 405 336 317 q 365 442 365 429 q 353 454 365 454 q 224 330 281 454 q 171 140 182 237 m 147 -41 q 103 66 103 -41 q 115 178 103 118 q -5 -85 64 35 l -18 -106 q -87 -182 -47 -149 q -150 -216 -128 -215 q -157 -208 -157 -214 q -138 -177 -158 -197 q 184 506 -44 -54 q 318 850 318 834 q 354 870 323 869 q 393 859 385 870 q 401 840 401 847 q 398 827 401 833 q 258 479 282 626 q 352 508 306 508 q 414 474 397 508 q 421 443 421 460 q 356 243 421 393 q 221 9 292 92 q 147 -41 178 -41 z "},"¾":{"ha":674,"x_min":71,"x_max":595,"o":"m 498 774 q 533 742 532 773 q 492 645 533 730 q 391 412 450 559 q 307 216 332 265 q 192 -3 211 22 q 158 -29 172 -28 q 138 -15 143 -29 q 141 9 136 -5 q 420 640 376 550 l 479 763 q 498 774 485 774 m 220 555 l 175 549 q 161 562 170 549 q 152 587 152 574 q 195 618 153 595 q 237 647 237 641 q 226 652 236 652 q 185 641 216 652 q 152 629 153 629 q 117 636 117 630 q 125 648 117 642 l 125 648 q 237 685 199 685 q 296 654 296 685 q 253 618 294 639 q 203 588 212 597 q 227 591 219 591 q 275 541 269 588 q 225 412 275 479 q 109 311 175 344 q 79 302 88 300 q 71 313 71 305 q 79 328 71 320 l 94 338 q 177 426 125 359 q 228 546 228 492 q 220 555 227 553 m 490 189 q 363 138 377 138 q 347 145 349 138 q 367 182 348 159 q 526 361 439 274 q 568 372 541 372 q 595 360 595 372 q 560 257 595 355 q 485 71 524 160 q 441 -20 446 -19 q 435 16 435 -18 q 461 116 435 51 q 490 189 487 180 m 498 232 l 532 308 q 435 204 482 258 l 498 232 z "},"³":{"ha":454,"x_min":234,"x_max":441,"o":"m 386 562 l 327 555 q 314 568 321 556 q 306 592 307 580 q 350 621 303 597 q 397 651 397 646 q 387 657 397 656 q 343 644 377 657 q 306 631 309 631 q 300 631 304 631 q 272 640 272 633 q 291 653 272 644 q 386 683 352 683 q 441 655 441 683 q 434 639 441 647 q 395 616 426 631 q 354 592 364 601 q 376 595 367 595 q 420 547 420 594 q 360 409 420 481 q 265 331 316 357 q 242 323 250 323 q 234 330 235 323 q 238 344 234 337 q 250 352 242 351 q 287 374 259 352 q 348 445 314 397 q 394 553 394 511 q 386 562 393 562 z "},"˜":{"ha":454,"x_min":76,"x_max":358,"o":"m 227 667 q 263 743 249 696 q 303 800 280 800 q 342 780 327 800 q 358 749 358 761 q 351 720 358 737 q 243 612 321 650 q 134 588 191 588 q 76 608 77 588 q 102 616 77 616 q 227 667 188 616 z "},"²":{"ha":422,"x_min":206,"x_max":423,"o":"m 359 409 l 339 417 q 293 396 318 417 q 274 378 289 392 q 225 353 247 353 q 207 372 212 353 q 206 384 206 378 q 218 422 206 405 q 291 511 222 428 q 376 622 361 594 q 392 663 392 649 l 392 664 q 324 628 357 653 q 306 622 317 622 q 295 629 296 622 q 307 646 296 635 q 383 686 353 686 q 413 675 402 686 q 423 652 423 663 q 382 576 423 625 q 372 564 378 571 q 364 555 366 557 l 240 404 q 336 427 310 427 q 363 413 363 427 q 359 409 362 410 z "},"u":{"ha":433,"x_min":22,"x_max":537,"o":"m 201 573 q 229 546 229 563 q 220 513 229 540 q 194 439 220 513 q 92 94 103 178 q 213 313 142 171 q 298 483 283 455 q 321 530 313 511 q 336 552 329 550 q 361 555 342 555 q 388 530 388 555 q 359 445 386 517 q 301 254 332 374 q 271 86 271 134 q 280 36 271 37 q 388 121 310 36 q 501 275 465 206 q 530 302 516 302 q 537 292 536 301 q 461 143 537 235 q 332 14 386 52 l 318 5 q 284 -7 295 -7 l 273 -7 q 212 94 213 3 q 225 186 212 138 l 240 241 q 129 40 174 95 q 49 -14 85 -14 q 22 35 22 -13 q 77 298 22 113 q 176 574 156 559 q 186 576 180 576 q 201 573 191 576 z "},"ú":{"ha":433,"x_min":22,"x_max":537,"o":"m 281 646 q 378 772 311 665 q 394 783 387 782 q 424 752 412 783 q 429 731 428 740 q 331 633 429 696 q 251 591 264 591 q 227 602 239 591 q 220 615 220 609 q 225 623 221 621 q 281 646 255 625 m 201 573 q 229 546 229 563 q 220 513 229 540 q 194 439 220 513 q 92 94 103 178 q 213 313 142 171 q 298 483 283 455 q 321 530 313 511 q 336 552 329 550 q 361 555 342 555 q 388 530 388 555 q 359 445 386 517 q 301 254 332 374 q 271 86 271 134 q 280 36 271 37 q 388 121 310 36 q 501 275 465 206 q 530 302 516 302 q 537 292 536 301 q 461 143 537 235 q 332 14 386 52 l 318 5 q 284 -7 295 -7 l 273 -7 q 212 94 213 3 q 225 186 212 138 l 240 241 q 129 40 174 95 q 49 -14 85 -14 q 22 35 22 -13 q 77 298 22 113 q 176 574 156 559 q 186 576 180 576 q 201 573 191 576 z "},"û":{"ha":433,"x_min":22,"x_max":537,"o":"m 341 693 q 244 609 296 659 q 224 595 229 595 q 210 620 210 597 q 228 660 210 642 q 282 708 246 677 q 336 758 319 740 q 367 776 354 776 q 387 763 380 776 q 394 744 394 750 q 389 704 394 738 q 381 649 385 671 q 362 616 378 628 q 338 604 347 604 q 331 620 331 605 q 341 693 330 635 m 201 573 q 229 546 229 563 q 220 513 229 540 q 194 439 220 513 q 92 94 103 178 q 213 313 142 171 q 298 483 283 455 q 321 530 313 511 q 336 552 329 550 q 361 555 342 555 q 388 530 388 555 q 359 445 386 517 q 301 254 332 374 q 271 86 271 134 q 280 36 271 37 q 388 121 310 36 q 501 275 465 206 q 530 302 516 302 q 537 292 536 301 q 461 143 537 235 q 332 14 386 52 l 318 5 q 284 -7 295 -7 l 273 -7 q 212 94 213 3 q 225 186 212 138 l 240 241 q 129 40 174 95 q 49 -14 85 -14 q 22 35 22 -13 q 77 298 22 113 q 176 574 156 559 q 186 576 180 576 q 201 573 191 576 z "},"ü":{"ha":433,"x_min":22,"x_max":537,"o":"m 337 616 q 389 673 367 631 q 404 734 395 685 q 418 803 413 784 q 442 823 422 823 q 476 806 461 824 q 491 778 491 789 q 425 656 491 744 q 387 610 403 626 q 336 603 359 583 q 337 616 330 610 m 267 634 q 289 706 279 650 q 304 780 299 761 q 328 799 309 799 q 362 782 347 800 q 377 753 377 765 q 311 631 377 725 q 279 593 294 607 q 251 576 261 577 q 234 582 241 575 q 231 598 222 593 q 267 634 253 612 m 201 573 q 229 546 229 563 q 220 513 229 540 q 194 439 220 513 q 92 94 103 178 q 213 313 142 171 q 298 483 283 455 q 321 530 313 511 q 336 552 329 550 q 361 555 342 555 q 388 530 388 555 q 359 445 386 517 q 301 254 332 374 q 271 86 271 134 q 280 36 271 37 q 388 121 310 36 q 501 275 465 206 q 530 302 516 302 q 537 292 536 301 q 461 143 537 235 q 332 14 386 52 l 318 5 q 284 -7 295 -7 l 273 -7 q 212 94 213 3 q 225 186 212 138 l 240 241 q 129 40 174 95 q 49 -14 85 -14 q 22 35 22 -13 q 77 298 22 113 q 176 574 156 559 q 186 576 180 576 q 201 573 191 576 z "},"ù":{"ha":433,"x_min":22,"x_max":537,"o":"m 185 767 q 196 758 191 766 q 224 700 201 750 q 270 621 248 650 q 327 584 293 593 l 328 583 q 332 577 332 581 q 325 565 332 573 q 307 557 319 557 q 215 620 287 557 q 144 718 144 682 q 151 741 144 729 q 185 767 164 767 m 201 573 q 229 546 229 563 q 220 513 229 540 q 194 439 220 513 q 92 94 103 178 q 213 313 142 171 q 298 483 283 455 q 321 530 313 511 q 336 552 329 550 q 361 555 342 555 q 388 530 388 555 q 359 445 386 517 q 301 254 332 374 q 271 86 271 134 q 280 36 271 37 q 388 121 310 36 q 501 275 465 206 q 530 302 516 302 q 537 292 536 301 q 461 143 537 235 q 332 14 386 52 l 318 5 q 284 -7 295 -7 l 273 -7 q 212 94 213 3 q 225 186 212 138 l 240 241 q 129 40 174 95 q 49 -14 85 -14 q 22 35 22 -13 q 77 298 22 113 q 176 574 156 559 q 186 576 180 576 q 201 573 191 576 z "},"_":{"ha":678,"x_min":39,"x_max":628,"o":"m 39 -201 q 54 -194 39 -193 q 601 -175 425 -176 q 627 -195 618 -175 q 628 -203 628 -199 q 564 -212 627 -212 q 390 -219 500 -212 q 189 -226 279 -226 q 73 -223 99 -227 q 40 -205 46 -220 q 39 -201 39 -202 z "},"v":{"ha":326,"x_min":42,"x_max":525,"o":"m 485 494 q 298 494 485 494 q 311 452 311 461 q 258 234 290 338 q 88 -12 180 -12 q 42 114 43 -12 q 77 395 42 240 q 120 458 81 412 q 166 531 163 511 q 174 551 170 551 l 180 548 l 197 449 q 134 274 167 385 q 101 112 102 163 q 110 96 101 97 q 124 103 116 96 q 211 269 161 134 q 262 458 262 404 q 245 530 262 473 q 292 525 266 525 q 380 540 317 525 q 474 556 444 555 q 523 543 505 557 q 525 505 541 529 q 485 494 519 495 z "},"w":{"ha":431,"x_min":34,"x_max":606,"o":"m 37 506 q 69 500 54 500 q 106 508 84 500 q 187 593 168 530 q 198 604 190 604 q 215 602 205 604 q 254 572 254 593 l 254 522 q 201 451 227 501 q 153 266 176 401 l 149 242 l 161 262 q 283 487 260 412 q 368 471 330 471 q 594 525 528 471 q 606 533 604 534 q 590 488 606 532 l 572 441 q 553 425 564 425 q 514 429 521 429 q 424 405 466 429 q 362 134 401 264 q 326 59 353 107 q 241 -33 274 -33 q 189 103 190 -33 q 190 146 189 118 q 191 186 191 174 q 179 175 184 182 q 142 117 173 168 q 90 67 111 67 q 79 71 86 67 q 44 126 44 90 q 92 316 44 184 q 146 470 140 448 q 92 467 125 479 q 55 454 58 454 q 34 480 35 455 q 37 506 33 505 m 243 102 q 254 89 243 82 q 327 230 277 107 q 377 411 378 353 q 374 427 377 418 q 349 456 366 456 q 340 447 345 454 q 275 274 307 389 q 243 102 243 159 z "},"x":{"ha":284,"x_min":-121,"x_max":264,"o":"m 165 530 l 173 532 q 181 509 181 531 q 161 417 181 488 q 142 317 142 347 q 146 267 142 288 q 184 367 166 278 q 209 467 203 455 q 219 479 215 479 q 261 446 251 479 q 264 425 264 435 q 232 279 264 366 q 175 169 199 193 q 151 127 151 144 q 178 55 151 92 q 207 2 207 15 q 184 -13 201 -12 q 149 11 167 -13 q 121 40 130 35 q 102 45 113 45 q 33 -12 73 45 l 9 -45 q -60 -131 -36 -112 q -102 -150 -84 -151 q -121 -144 -120 -150 q -51 -34 -117 -127 q 28 80 15 60 q 57 127 41 101 q 75 167 74 153 q 70 229 75 181 q 64 306 64 277 q 71 389 64 334 l 81 460 q 84 485 83 482 q 92 492 85 488 l 165 530 z "},"y":{"ha":416,"x_min":-77,"x_max":406,"o":"m 366 555 q 406 533 404 555 q 380 430 406 526 q 348 315 380 430 q 322 188 338 277 q 289 24 306 98 q 146 -389 221 -270 q 90 -456 123 -424 q -47 -530 16 -530 q -77 -515 -77 -530 q -58 -506 -76 -510 q -18 -489 -39 -501 q 75 -389 43 -452 q 260 241 203 -171 q 179 83 240 180 q 67 -14 119 -14 q 40 41 39 -14 q 159 533 42 216 q 168 555 164 546 q 190 576 178 576 q 211 574 202 576 q 247 546 246 567 q 237 513 247 541 l 204 416 q 109 94 125 186 q 236 325 155 165 q 324 498 317 485 q 336 522 332 511 l 342 536 q 366 555 350 555 z "},"ý":{"ha":416,"x_min":-77,"x_max":424,"o":"m 276 646 q 373 772 307 665 q 389 783 382 782 q 419 752 408 783 q 424 731 423 740 q 326 633 424 696 q 247 591 259 591 q 222 602 234 591 q 216 615 215 609 q 220 623 216 621 q 276 646 250 625 m 366 555 q 406 533 404 555 q 380 430 406 526 q 348 315 380 430 q 322 188 338 277 q 289 24 306 98 q 146 -389 221 -270 q 90 -456 123 -424 q -47 -530 16 -530 q -77 -515 -77 -530 q -58 -506 -76 -510 q -18 -489 -39 -501 q 75 -389 43 -452 q 260 241 203 -171 q 179 83 240 180 q 67 -14 119 -14 q 40 41 39 -14 q 159 533 42 216 q 168 555 164 546 q 190 576 178 576 q 211 574 202 576 q 247 546 246 567 q 237 513 247 541 l 204 416 q 109 94 125 186 q 236 325 155 165 q 324 498 317 485 q 336 522 332 511 l 342 536 q 366 555 350 555 z "},"ÿ":{"ha":416,"x_min":-77,"x_max":478,"o":"m 324 610 q 376 667 354 625 q 391 728 382 679 q 405 797 400 778 q 429 817 410 817 q 463 800 448 818 q 478 772 478 783 q 412 650 478 738 q 374 604 390 620 q 323 597 346 576 q 324 610 317 604 m 254 628 q 276 700 267 644 q 291 774 286 755 q 315 793 296 793 q 349 776 334 793 q 364 747 364 759 q 298 625 364 719 q 266 587 281 601 q 238 570 248 571 q 221 576 229 569 q 218 592 209 587 q 254 628 240 606 m 366 555 q 406 533 404 555 q 380 430 406 526 q 348 315 380 430 q 322 188 338 277 q 289 24 306 98 q 146 -389 221 -270 q 90 -456 123 -424 q -47 -530 16 -530 q -77 -515 -77 -530 q -58 -506 -76 -510 q -18 -489 -39 -501 q 75 -389 43 -452 q 260 241 203 -171 q 179 83 240 180 q 67 -14 119 -14 q 40 41 39 -14 q 159 533 42 216 q 168 555 164 546 q 190 576 178 576 q 211 574 202 576 q 247 546 246 567 q 237 513 247 541 l 204 416 q 109 94 125 186 q 236 325 155 165 q 324 498 317 485 q 336 522 332 511 l 342 536 q 366 555 350 555 z "},"¥":{"ha":434,"x_min":-3,"x_max":446,"o":"m 42 271 l 41 279 q 52 290 41 288 l 199 303 l 209 331 l 195 386 q 120 675 146 593 q 95 769 94 758 q 98 785 96 780 q 127 801 106 801 q 152 788 147 800 l 250 455 l 337 729 q 346 759 340 737 q 359 791 352 781 q 408 802 367 802 q 427 783 427 801 q 425 772 427 777 l 275 309 q 427 314 353 314 q 438 305 431 313 q 446 277 446 296 q 419 265 444 266 q 256 250 353 262 l 235 190 q 384 195 311 195 q 395 185 388 194 q 402 157 402 177 q 376 146 401 146 q 215 131 309 143 l 209 113 q 148 -34 170 1 q 104 -94 126 -70 q 11 -157 47 -157 q 1 -150 1 -157 q 10 -132 2 -142 q 130 104 71 -52 l 137 125 q 23 130 39 125 q -1 151 7 134 l -3 159 q 8 170 -3 168 q 159 184 97 179 l 179 244 q 66 249 82 244 q 42 271 50 254 z "},"z":{"ha":541,"x_min":5,"x_max":696,"o":"m 437 501 q 419 494 434 500 q 218 427 263 427 q 178 437 193 427 q 163 454 164 448 q 189 471 165 463 q 293 507 216 479 q 453 557 431 557 q 496 543 476 557 q 516 515 516 529 q 495 474 516 501 q 382 346 473 447 q 264 210 290 245 l 679 449 q 684 452 684 452 q 696 431 695 448 q 693 410 697 412 q 661 390 677 399 l 569 332 q 260 127 366 206 q 66 -47 155 49 q 52 -54 58 -54 q 18 -34 32 -54 q 5 -4 5 -14 q 8 9 5 5 q 244 282 64 77 l 437 501 z "}}}
